<?xml version="1.0" standalone="no"?>
<svg width="567.429" height="545.624" viewBox="0 0 567.429 545.624" xmlns="http://www.w3.org/2000/svg" shape-rendering="crispEdges">
<title>
/Users/masaki/Desktop/kek/1st_range_asym.svg
</title>
<desc>
Creator: ROOT Version 6.26/06
CreationDate: Fri Sep  2 18:27:39 2022</desc>
<defs>
</defs>
<rect x="0.5" y="0" width="566.929" height="545.124" fill="white"/>
<rect x="57.1929" y="54.5124" width="453.543" height="436.099" fill="white"/>
<rect x="57.1929" y="54.5124" width="453.543" height="436.099" fill="none" stroke="black"/>
<rect x="57.1929" y="54.5124" width="453.543" height="436.099" fill="white"/>
<rect x="57.1929" y="54.5124" width="453.543" height="436.099" fill="none" stroke="black"/>
<path d="M66.5123,269.326v -9.51732" fill="none" stroke="#000099"/>
<path d="M66.5123,259.809v -9.51732" fill="none" stroke="#000099"/>
<path d="M63.4058,259.809h 3.10646" fill="none" stroke="#000099"/>
<path d="M66.5123,259.809h 3.10646" fill="none" stroke="#000099"/>
<g stroke="black" stroke-width="1" fill="none">
<line x1="65.5123" y1="259.809" x2="66.5123" y2="259.809"/>
</g>
<path d="M72.7252,280.609v -11.909" fill="none" stroke="#000099"/>
<path d="M72.7252,268.7v -11.909" fill="none" stroke="#000099"/>
<path d="M69.6188,268.7h 3.10646" fill="none" stroke="#000099"/>
<path d="M72.7252,268.7h 3.10646" fill="none" stroke="#000099"/>
<g stroke="black" stroke-width="1" fill="none">
<line x1="71.7252" y1="268.7" x2="72.7252" y2="268.7"/>
</g>
<path d="M78.9381,278.338v -12.9058" fill="none" stroke="#000099"/>
<path d="M78.9381,265.432v -12.9058" fill="none" stroke="#000099"/>
<path d="M75.8317,265.432h 3.10646" fill="none" stroke="#000099"/>
<path d="M78.9381,265.432h 3.10646" fill="none" stroke="#000099"/>
<g stroke="black" stroke-width="1" fill="none">
<line x1="77.9381" y1="265.432" x2="78.9381" y2="265.432"/>
</g>
<path d="M85.1511,283.227v -13.0681" fill="none" stroke="#000099"/>
<path d="M85.1511,270.159v -13.0681" fill="none" stroke="#000099"/>
<path d="M82.0446,270.159h 3.10646" fill="none" stroke="#000099"/>
<path d="M85.1511,270.159h 3.10646" fill="none" stroke="#000099"/>
<g stroke="black" stroke-width="1" fill="none">
<line x1="84.1511" y1="270.159" x2="85.1511" y2="270.159"/>
</g>
<path d="M91.364,278.094v -13.1558" fill="none" stroke="#000099"/>
<path d="M91.364,264.939v -13.1558" fill="none" stroke="#000099"/>
<path d="M88.2575,264.939h 3.10646" fill="none" stroke="#000099"/>
<path d="M91.364,264.939h 3.10646" fill="none" stroke="#000099"/>
<g stroke="black" stroke-width="1" fill="none">
<line x1="90.364" y1="264.939" x2="91.364" y2="264.939"/>
</g>
<path d="M97.5769,258.629v -12.7467" fill="none" stroke="#000099"/>
<path d="M97.5769,245.882v -12.7467" fill="none" stroke="#000099"/>
<path d="M94.4705,245.882h 3.10646" fill="none" stroke="#000099"/>
<path d="M97.5769,245.882h 3.10646" fill="none" stroke="#000099"/>
<g stroke="black" stroke-width="1" fill="none">
<line x1="96.5769" y1="245.882" x2="97.5769" y2="245.882"/>
</g>
<path d="M103.79,280.083v -14.7106" fill="none" stroke="#000099"/>
<path d="M103.79,265.372v -14.7106" fill="none" stroke="#000099"/>
<path d="M100.683,265.372h 3.10646" fill="none" stroke="#000099"/>
<path d="M103.79,265.372h 3.10646" fill="none" stroke="#000099"/>
<g stroke="black" stroke-width="1" fill="none">
<line x1="102.79" y1="265.372" x2="103.79" y2="265.372"/>
</g>
<path d="M110.003,282.936v -14.5926" fill="none" stroke="#000099"/>
<path d="M110.003,268.344v -14.5926" fill="none" stroke="#000099"/>
<path d="M106.896,268.344h 3.10646" fill="none" stroke="#000099"/>
<path d="M110.003,268.344h 3.10646" fill="none" stroke="#000099"/>
<g stroke="black" stroke-width="1" fill="none">
<line x1="109.003" y1="268.344" x2="110.003" y2="268.344"/>
</g>
<path d="M116.216,288.769v -15.4953" fill="none" stroke="#000099"/>
<path d="M116.216,273.274v -15.4953" fill="none" stroke="#000099"/>
<path d="M113.109,273.274h 3.10646" fill="none" stroke="#000099"/>
<path d="M116.216,273.274h 3.10646" fill="none" stroke="#000099"/>
<g stroke="black" stroke-width="1" fill="none">
<line x1="115.216" y1="273.274" x2="116.216" y2="273.274"/>
</g>
<path d="M122.429,277.353v -16.1766" fill="none" stroke="#000099"/>
<path d="M122.429,261.177v -16.1766" fill="none" stroke="#000099"/>
<path d="M119.322,261.177h 3.10646" fill="none" stroke="#000099"/>
<path d="M122.429,261.177h 3.10646" fill="none" stroke="#000099"/>
<g stroke="black" stroke-width="1" fill="none">
<line x1="121.429" y1="261.177" x2="122.429" y2="261.177"/>
</g>
<path d="M128.642,288.711v -16.688" fill="none" stroke="#000099"/>
<path d="M128.642,272.023v -16.688" fill="none" stroke="#000099"/>
<path d="M125.535,272.023h 3.10646" fill="none" stroke="#000099"/>
<path d="M128.642,272.023h 3.10646" fill="none" stroke="#000099"/>
<g stroke="black" stroke-width="1" fill="none">
<line x1="127.642" y1="272.023" x2="128.642" y2="272.023"/>
</g>
<path d="M134.854,293.786v -16.9286" fill="none" stroke="#000099"/>
<path d="M134.854,276.858v -16.9286" fill="none" stroke="#000099"/>
<path d="M131.748,276.858h 3.10646" fill="none" stroke="#000099"/>
<path d="M134.854,276.858h 3.10646" fill="none" stroke="#000099"/>
<g stroke="black" stroke-width="1" fill="none">
<line x1="133.854" y1="276.858" x2="134.854" y2="276.858"/>
</g>
<path d="M141.067,282.125v -16.4448" fill="none" stroke="#000099"/>
<path d="M141.067,265.681v -16.4448" fill="none" stroke="#000099"/>
<path d="M137.961,265.681h 3.10646" fill="none" stroke="#000099"/>
<path d="M141.067,265.681h 3.10646" fill="none" stroke="#000099"/>
<g stroke="black" stroke-width="1" fill="none">
<line x1="140.067" y1="265.681" x2="141.067" y2="265.681"/>
</g>
<path d="M147.28,271.015v -15.5303" fill="none" stroke="#000099"/>
<path d="M147.28,255.485v -15.5303" fill="none" stroke="#000099"/>
<path d="M144.174,255.485h 3.10646" fill="none" stroke="#000099"/>
<path d="M147.28,255.485h 3.10646" fill="none" stroke="#000099"/>
<g stroke="black" stroke-width="1" fill="none">
<line x1="146.28" y1="255.485" x2="147.28" y2="255.485"/>
</g>
<path d="M153.493,256.445v -16.6631" fill="none" stroke="#000099"/>
<path d="M153.493,239.782v -16.6631" fill="none" stroke="#000099"/>
<path d="M150.387,239.782h 3.10646" fill="none" stroke="#000099"/>
<path d="M153.493,239.782h 3.10646" fill="none" stroke="#000099"/>
<g stroke="black" stroke-width="1" fill="none">
<line x1="152.493" y1="239.782" x2="153.493" y2="239.782"/>
</g>
<path d="M159.706,287.161v -18.1853" fill="none" stroke="#000099"/>
<path d="M159.706,268.976v -18.1853" fill="none" stroke="#000099"/>
<path d="M156.6,268.976h 3.10646" fill="none" stroke="#000099"/>
<path d="M159.706,268.976h 3.10646" fill="none" stroke="#000099"/>
<g stroke="black" stroke-width="1" fill="none">
<line x1="158.706" y1="268.976" x2="159.706" y2="268.976"/>
</g>
<path d="M165.919,268.165v -17.4313" fill="none" stroke="#000099"/>
<path d="M165.919,250.734v -17.4313" fill="none" stroke="#000099"/>
<path d="M162.813,250.734h 3.10646" fill="none" stroke="#000099"/>
<path d="M165.919,250.734h 3.10646" fill="none" stroke="#000099"/>
<g stroke="black" stroke-width="1" fill="none">
<line x1="164.919" y1="250.734" x2="165.919" y2="250.734"/>
</g>
<path d="M172.132,282.308v -18.5133" fill="none" stroke="#000099"/>
<path d="M172.132,263.795v -18.5133" fill="none" stroke="#000099"/>
<path d="M169.026,263.795h 3.10646" fill="none" stroke="#000099"/>
<path d="M172.132,263.795h 3.10646" fill="none" stroke="#000099"/>
<g stroke="black" stroke-width="1" fill="none">
<line x1="171.132" y1="263.795" x2="172.132" y2="263.795"/>
</g>
<path d="M178.345,309.25v -21.738" fill="none" stroke="#000099"/>
<path d="M178.345,287.512v -21.738" fill="none" stroke="#000099"/>
<path d="M175.238,287.512h 3.10646" fill="none" stroke="#000099"/>
<path d="M178.345,287.512h 3.10646" fill="none" stroke="#000099"/>
<g stroke="black" stroke-width="1" fill="none">
<line x1="177.345" y1="287.512" x2="178.345" y2="287.512"/>
</g>
<path d="M184.558,345.908v -26.5803" fill="none" stroke="#000099"/>
<path d="M184.558,319.328v -26.5803" fill="none" stroke="#000099"/>
<path d="M181.451,319.328h 3.10646" fill="none" stroke="#000099"/>
<path d="M184.558,319.328h 3.10646" fill="none" stroke="#000099"/>
<g stroke="black" stroke-width="1" fill="none">
<line x1="183.558" y1="319.328" x2="184.558" y2="319.328"/>
</g>
<path d="M190.771,303.289v -22.7391" fill="none" stroke="#000099"/>
<path d="M190.771,280.55v -22.7391" fill="none" stroke="#000099"/>
<path d="M187.664,280.55h 3.10646" fill="none" stroke="#000099"/>
<path d="M190.771,280.55h 3.10646" fill="none" stroke="#000099"/>
<g stroke="black" stroke-width="1" fill="none">
<line x1="189.771" y1="280.55" x2="190.771" y2="280.55"/>
</g>
<path d="M196.984,314.921v -24.0663" fill="none" stroke="#000099"/>
<path d="M196.984,290.854v -24.0663" fill="none" stroke="#000099"/>
<path d="M193.877,290.854h 3.10646" fill="none" stroke="#000099"/>
<path d="M196.984,290.854h 3.10646" fill="none" stroke="#000099"/>
<g stroke="black" stroke-width="1" fill="none">
<line x1="195.984" y1="290.854" x2="196.984" y2="290.854"/>
</g>
<path d="M203.197,357.959v -28.9045" fill="none" stroke="#000099"/>
<path d="M203.197,329.054v -28.9045" fill="none" stroke="#000099"/>
<path d="M200.09,329.054h 3.10646" fill="none" stroke="#000099"/>
<path d="M203.197,329.054h 3.10646" fill="none" stroke="#000099"/>
<g stroke="black" stroke-width="1" fill="none">
<line x1="202.197" y1="329.054" x2="203.197" y2="329.054"/>
</g>
<path d="M209.41,323.131v -25.0239" fill="none" stroke="#000099"/>
<path d="M209.41,298.107v -25.0239" fill="none" stroke="#000099"/>
<path d="M206.303,298.107h 3.10646" fill="none" stroke="#000099"/>
<path d="M209.41,298.107h 3.10646" fill="none" stroke="#000099"/>
<g stroke="black" stroke-width="1" fill="none">
<line x1="208.41" y1="298.107" x2="209.41" y2="298.107"/>
</g>
<path d="M215.622,314.546v -24.2624" fill="none" stroke="#000099"/>
<path d="M215.622,290.284v -24.2624" fill="none" stroke="#000099"/>
<path d="M212.516,290.284h 3.10646" fill="none" stroke="#000099"/>
<path d="M215.622,290.284h 3.10646" fill="none" stroke="#000099"/>
<g stroke="black" stroke-width="1" fill="none">
<line x1="214.622" y1="290.284" x2="215.622" y2="290.284"/>
</g>
<path d="M221.835,313.009v -24.424" fill="none" stroke="#000099"/>
<path d="M221.835,288.585v -24.424" fill="none" stroke="#000099"/>
<path d="M218.729,288.585h 3.10646" fill="none" stroke="#000099"/>
<path d="M221.835,288.585h 3.10646" fill="none" stroke="#000099"/>
<g stroke="black" stroke-width="1" fill="none">
<line x1="220.835" y1="288.585" x2="221.835" y2="288.585"/>
</g>
<path d="M228.048,342.854v -28.6096" fill="none" stroke="#000099"/>
<path d="M228.048,314.244v -28.6096" fill="none" stroke="#000099"/>
<path d="M224.942,314.244h 3.10646" fill="none" stroke="#000099"/>
<path d="M228.048,314.244h 3.10646" fill="none" stroke="#000099"/>
<g stroke="black" stroke-width="1" fill="none">
<line x1="227.048" y1="314.244" x2="228.048" y2="314.244"/>
</g>
<path d="M234.261,303.809v -26.6506" fill="none" stroke="#000099"/>
<path d="M234.261,277.159v -26.6506" fill="none" stroke="#000099"/>
<path d="M231.155,277.159h 3.10646" fill="none" stroke="#000099"/>
<path d="M234.261,277.159h 3.10646" fill="none" stroke="#000099"/>
<g stroke="black" stroke-width="1" fill="none">
<line x1="233.261" y1="277.159" x2="234.261" y2="277.159"/>
</g>
<path d="M240.474,245.56v -23.3703" fill="none" stroke="#000099"/>
<path d="M240.474,222.19v -23.3703" fill="none" stroke="#000099"/>
<path d="M237.368,222.19h 3.10646" fill="none" stroke="#000099"/>
<path d="M240.474,222.19h 3.10646" fill="none" stroke="#000099"/>
<g stroke="black" stroke-width="1" fill="none">
<line x1="239.474" y1="222.19" x2="240.474" y2="222.19"/>
</g>
<path d="M246.687,321.244v -30.3669" fill="none" stroke="#000099"/>
<path d="M246.687,290.877v -30.3669" fill="none" stroke="#000099"/>
<path d="M243.581,290.877h 3.10646" fill="none" stroke="#000099"/>
<path d="M246.687,290.877h 3.10646" fill="none" stroke="#000099"/>
<g stroke="black" stroke-width="1" fill="none">
<line x1="245.687" y1="290.877" x2="246.687" y2="290.877"/>
</g>
<path d="M252.9,426.763v -46.7767" fill="none" stroke="#000099"/>
<path d="M252.9,379.986v -46.7767" fill="none" stroke="#000099"/>
<path d="M249.794,379.986h 3.10646" fill="none" stroke="#000099"/>
<path d="M252.9,379.986h 3.10646" fill="none" stroke="#000099"/>
<g stroke="black" stroke-width="1" fill="none">
<line x1="251.9" y1="379.986" x2="252.9" y2="379.986"/>
</g>
<path d="M259.113,309.041v -28.4023" fill="none" stroke="#000099"/>
<path d="M259.113,280.638v -28.4023" fill="none" stroke="#000099"/>
<path d="M256.006,280.638h 3.10646" fill="none" stroke="#000099"/>
<path d="M259.113,280.638h 3.10646" fill="none" stroke="#000099"/>
<g stroke="black" stroke-width="1" fill="none">
<line x1="258.113" y1="280.638" x2="259.113" y2="280.638"/>
</g>
<path d="M265.326,299.009v -30.4717" fill="none" stroke="#000099"/>
<path d="M265.326,268.537v -30.4717" fill="none" stroke="#000099"/>
<path d="M262.219,268.537h 3.10646" fill="none" stroke="#000099"/>
<path d="M265.326,268.537h 3.10646" fill="none" stroke="#000099"/>
<g stroke="black" stroke-width="1" fill="none">
<line x1="264.326" y1="268.537" x2="265.326" y2="268.537"/>
</g>
<path d="M271.539,287.084v -27.217" fill="none" stroke="#000099"/>
<path d="M271.539,259.867v -27.217" fill="none" stroke="#000099"/>
<path d="M268.432,259.867h 3.10646" fill="none" stroke="#000099"/>
<path d="M271.539,259.867h 3.10646" fill="none" stroke="#000099"/>
<g stroke="black" stroke-width="1" fill="none">
<line x1="270.539" y1="259.867" x2="271.539" y2="259.867"/>
</g>
<path d="M277.752,309.042v -33.2344" fill="none" stroke="#000099"/>
<path d="M277.752,275.807v -33.2344" fill="none" stroke="#000099"/>
<path d="M274.645,275.807h 3.10646" fill="none" stroke="#000099"/>
<path d="M277.752,275.807h 3.10646" fill="none" stroke="#000099"/>
<g stroke="black" stroke-width="1" fill="none">
<line x1="276.752" y1="275.807" x2="277.752" y2="275.807"/>
</g>
<path d="M283.965,272.993v -29.3283" fill="none" stroke="#000099"/>
<path d="M283.965,243.664v -29.3283" fill="none" stroke="#000099"/>
<path d="M280.858,243.664h 3.10646" fill="none" stroke="#000099"/>
<path d="M283.965,243.664h 3.10646" fill="none" stroke="#000099"/>
<g stroke="black" stroke-width="1" fill="none">
<line x1="282.965" y1="243.664" x2="283.965" y2="243.664"/>
</g>
<path d="M290.177,277.735v -28.9271" fill="none" stroke="#000099"/>
<path d="M290.177,248.808v -28.9271" fill="none" stroke="#000099"/>
<path d="M287.071,248.808h 3.10646" fill="none" stroke="#000099"/>
<path d="M290.177,248.808h 3.10646" fill="none" stroke="#000099"/>
<g stroke="black" stroke-width="1" fill="none">
<line x1="289.177" y1="248.808" x2="290.177" y2="248.808"/>
</g>
<path d="M296.39,392.9v -44.8028" fill="none" stroke="#000099"/>
<path d="M296.39,348.097v -44.8028" fill="none" stroke="#000099"/>
<path d="M293.284,348.097h 3.10646" fill="none" stroke="#000099"/>
<path d="M296.39,348.097h 3.10646" fill="none" stroke="#000099"/>
<g stroke="black" stroke-width="1" fill="none">
<line x1="295.39" y1="348.097" x2="296.39" y2="348.097"/>
</g>
<path d="M302.603,262.857v -30.2805" fill="none" stroke="#000099"/>
<path d="M302.603,232.577v -30.2805" fill="none" stroke="#000099"/>
<path d="M299.497,232.577h 3.10646" fill="none" stroke="#000099"/>
<path d="M302.603,232.577h 3.10646" fill="none" stroke="#000099"/>
<g stroke="black" stroke-width="1" fill="none">
<line x1="301.603" y1="232.577" x2="302.603" y2="232.577"/>
</g>
<path d="M308.816,301.041v -36.2228" fill="none" stroke="#000099"/>
<path d="M308.816,264.818v -36.2228" fill="none" stroke="#000099"/>
<path d="M305.71,264.818h 3.10646" fill="none" stroke="#000099"/>
<path d="M308.816,264.818h 3.10646" fill="none" stroke="#000099"/>
<g stroke="black" stroke-width="1" fill="none">
<line x1="307.816" y1="264.818" x2="308.816" y2="264.818"/>
</g>
<path d="M315.029,331.064v -39.7803" fill="none" stroke="#000099"/>
<path d="M315.029,291.284v -39.7803" fill="none" stroke="#000099"/>
<path d="M311.923,291.284h 3.10646" fill="none" stroke="#000099"/>
<path d="M315.029,291.284h 3.10646" fill="none" stroke="#000099"/>
<g stroke="black" stroke-width="1" fill="none">
<line x1="314.029" y1="291.284" x2="315.029" y2="291.284"/>
</g>
<path d="M321.242,259.578v -32.9537" fill="none" stroke="#000099"/>
<path d="M321.242,226.625v -32.9537" fill="none" stroke="#000099"/>
<path d="M318.136,226.625h 3.10646" fill="none" stroke="#000099"/>
<path d="M321.242,226.625h 3.10646" fill="none" stroke="#000099"/>
<g stroke="black" stroke-width="1" fill="none">
<line x1="320.242" y1="226.625" x2="321.242" y2="226.625"/>
</g>
<path d="M327.455,310.736v -38.0502" fill="none" stroke="#000099"/>
<path d="M327.455,272.686v -38.0502" fill="none" stroke="#000099"/>
<path d="M324.349,272.686h 3.10646" fill="none" stroke="#000099"/>
<path d="M327.455,272.686h 3.10646" fill="none" stroke="#000099"/>
<g stroke="black" stroke-width="1" fill="none">
<line x1="326.455" y1="272.686" x2="327.455" y2="272.686"/>
</g>
<path d="M333.668,295.478v -37.7039" fill="none" stroke="#000099"/>
<path d="M333.668,257.774v -37.7039" fill="none" stroke="#000099"/>
<path d="M330.561,257.774h 3.10646" fill="none" stroke="#000099"/>
<path d="M333.668,257.774h 3.10646" fill="none" stroke="#000099"/>
<g stroke="black" stroke-width="1" fill="none">
<line x1="332.668" y1="257.774" x2="333.668" y2="257.774"/>
</g>
<path d="M339.881,333.591v -48.0546" fill="none" stroke="#000099"/>
<path d="M339.881,285.537v -48.0546" fill="none" stroke="#000099"/>
<path d="M336.774,285.537h 3.10646" fill="none" stroke="#000099"/>
<path d="M339.881,285.537h 3.10646" fill="none" stroke="#000099"/>
<g stroke="black" stroke-width="1" fill="none">
<line x1="338.881" y1="285.537" x2="339.881" y2="285.537"/>
</g>
<path d="M346.094,363.312v -48.7507" fill="none" stroke="#000099"/>
<path d="M346.094,314.561v -48.7507" fill="none" stroke="#000099"/>
<path d="M342.987,314.561h 3.10646" fill="none" stroke="#000099"/>
<path d="M346.094,314.561h 3.10646" fill="none" stroke="#000099"/>
<g stroke="black" stroke-width="1" fill="none">
<line x1="345.094" y1="314.561" x2="346.094" y2="314.561"/>
</g>
<path d="M352.307,352.639v -49.3272" fill="none" stroke="#000099"/>
<path d="M352.307,303.312v -49.3272" fill="none" stroke="#000099"/>
<path d="M349.2,303.312h 3.10646" fill="none" stroke="#000099"/>
<path d="M352.307,303.312h 3.10646" fill="none" stroke="#000099"/>
<g stroke="black" stroke-width="1" fill="none">
<line x1="351.307" y1="303.312" x2="352.307" y2="303.312"/>
</g>
<path d="M358.52,279.035v -32.7378" fill="none" stroke="#000099"/>
<path d="M358.52,246.298v -32.7378" fill="none" stroke="#000099"/>
<path d="M355.413,246.298h 3.10646" fill="none" stroke="#000099"/>
<path d="M358.52,246.298h 3.10646" fill="none" stroke="#000099"/>
<g stroke="black" stroke-width="1" fill="none">
<line x1="357.52" y1="246.298" x2="358.52" y2="246.298"/>
</g>
<path d="M364.733,281.888v -42.8446" fill="none" stroke="#000099"/>
<path d="M364.733,239.044v -42.8446" fill="none" stroke="#000099"/>
<path d="M361.626,239.044h 3.10646" fill="none" stroke="#000099"/>
<path d="M364.733,239.044h 3.10646" fill="none" stroke="#000099"/>
<g stroke="black" stroke-width="1" fill="none">
<line x1="363.733" y1="239.044" x2="364.733" y2="239.044"/>
</g>
<path d="M370.945,337.363v -48.2709" fill="none" stroke="#000099"/>
<path d="M370.945,289.092v -48.2709" fill="none" stroke="#000099"/>
<path d="M367.839,289.092h 3.10646" fill="none" stroke="#000099"/>
<path d="M370.945,289.092h 3.10646" fill="none" stroke="#000099"/>
<g stroke="black" stroke-width="1" fill="none">
<line x1="369.945" y1="289.092" x2="370.945" y2="289.092"/>
</g>
<path d="M377.158,273.027v -40.6662" fill="none" stroke="#000099"/>
<path d="M377.158,232.361v -40.6662" fill="none" stroke="#000099"/>
<path d="M374.052,232.361h 3.10646" fill="none" stroke="#000099"/>
<path d="M377.158,232.361h 3.10646" fill="none" stroke="#000099"/>
<g stroke="black" stroke-width="1" fill="none">
<line x1="376.158" y1="232.361" x2="377.158" y2="232.361"/>
</g>
<path d="M383.371,302.727v -45.515" fill="none" stroke="#000099"/>
<path d="M383.371,257.211v -45.515" fill="none" stroke="#000099"/>
<path d="M380.265,257.211h 3.10646" fill="none" stroke="#000099"/>
<path d="M383.371,257.211h 3.10646" fill="none" stroke="#000099"/>
<g stroke="black" stroke-width="1" fill="none">
<line x1="382.371" y1="257.211" x2="383.371" y2="257.211"/>
</g>
<path d="M389.584,321.106v -49.1084" fill="none" stroke="#000099"/>
<path d="M389.584,271.997v -49.1084" fill="none" stroke="#000099"/>
<path d="M386.478,271.997h 3.10646" fill="none" stroke="#000099"/>
<path d="M389.584,271.997h 3.10646" fill="none" stroke="#000099"/>
<g stroke="black" stroke-width="1" fill="none">
<line x1="388.584" y1="271.997" x2="389.584" y2="271.997"/>
</g>
<path d="M395.797,364.411v -74.965" fill="none" stroke="#000099"/>
<path d="M395.797,289.446v -74.965" fill="none" stroke="#000099"/>
<path d="M392.691,289.446h 3.10646" fill="none" stroke="#000099"/>
<path d="M395.797,289.446h 3.10646" fill="none" stroke="#000099"/>
<g stroke="black" stroke-width="1" fill="none">
<line x1="394.797" y1="289.446" x2="395.797" y2="289.446"/>
</g>
<path d="M402.01,344.82v -52.1415" fill="none" stroke="#000099"/>
<path d="M402.01,292.678v -52.1415" fill="none" stroke="#000099"/>
<path d="M398.904,292.678h 3.10646" fill="none" stroke="#000099"/>
<path d="M402.01,292.678h 3.10646" fill="none" stroke="#000099"/>
<g stroke="black" stroke-width="1" fill="none">
<line x1="401.01" y1="292.678" x2="402.01" y2="292.678"/>
</g>
<path d="M408.223,419.714v -82.0202" fill="none" stroke="#000099"/>
<path d="M408.223,337.694v -82.0202" fill="none" stroke="#000099"/>
<path d="M405.117,337.694h 3.10646" fill="none" stroke="#000099"/>
<path d="M408.223,337.694h 3.10646" fill="none" stroke="#000099"/>
<g stroke="black" stroke-width="1" fill="none">
<line x1="407.223" y1="337.694" x2="408.223" y2="337.694"/>
</g>
<path d="M414.436,258.332v -50.2063" fill="none" stroke="#000099"/>
<path d="M414.436,208.126v -50.2063" fill="none" stroke="#000099"/>
<path d="M411.329,208.126h 3.10646" fill="none" stroke="#000099"/>
<path d="M414.436,208.126h 3.10646" fill="none" stroke="#000099"/>
<g stroke="black" stroke-width="1" fill="none">
<line x1="413.436" y1="208.126" x2="414.436" y2="208.126"/>
</g>
<path d="M420.649,288.555v -44.0784" fill="none" stroke="#000099"/>
<path d="M420.649,244.477v -44.0784" fill="none" stroke="#000099"/>
<path d="M417.542,244.477h 3.10646" fill="none" stroke="#000099"/>
<path d="M420.649,244.477h 3.10646" fill="none" stroke="#000099"/>
<g stroke="black" stroke-width="1" fill="none">
<line x1="419.649" y1="244.477" x2="420.649" y2="244.477"/>
</g>
<path d="M426.862,288.369v -52.9014" fill="none" stroke="#000099"/>
<path d="M426.862,235.467v -52.9014" fill="none" stroke="#000099"/>
<path d="M423.755,235.467h 3.10646" fill="none" stroke="#000099"/>
<path d="M426.862,235.467h 3.10646" fill="none" stroke="#000099"/>
<g stroke="black" stroke-width="1" fill="none">
<line x1="425.862" y1="235.467" x2="426.862" y2="235.467"/>
</g>
<path d="M433.075,321.55v -73.4586" fill="none" stroke="#000099"/>
<path d="M433.075,248.091v -73.4586" fill="none" stroke="#000099"/>
<path d="M429.968,248.091h 3.10646" fill="none" stroke="#000099"/>
<path d="M433.075,248.091h 3.10646" fill="none" stroke="#000099"/>
<g stroke="black" stroke-width="1" fill="none">
<line x1="432.075" y1="248.091" x2="433.075" y2="248.091"/>
</g>
<path d="M445.501,490.612v -77.1067" fill="none" stroke="#000099"/>
<path d="M445.501,413.505v -133.029" fill="none" stroke="#000099"/>
<path d="M442.394,413.505h 3.10646" fill="none" stroke="#000099"/>
<path d="M445.501,413.505h 3.10646" fill="none" stroke="#000099"/>
<g stroke="black" stroke-width="1" fill="none">
<line x1="444.501" y1="413.505" x2="445.501" y2="413.505"/>
</g>
<path d="M451.713,356.334v -69.7304" fill="none" stroke="#000099"/>
<path d="M451.713,286.603v -69.7304" fill="none" stroke="#000099"/>
<path d="M448.607,286.603h 3.10646" fill="none" stroke="#000099"/>
<path d="M451.713,286.603h 3.10646" fill="none" stroke="#000099"/>
<g stroke="black" stroke-width="1" fill="none">
<line x1="450.713" y1="286.603" x2="451.713" y2="286.603"/>
</g>
<path d="M457.926,317.624v -68.4694" fill="none" stroke="#000099"/>
<path d="M457.926,249.155v -68.4694" fill="none" stroke="#000099"/>
<path d="M454.82,249.155h 3.10646" fill="none" stroke="#000099"/>
<path d="M457.926,249.155h 3.10646" fill="none" stroke="#000099"/>
<g stroke="black" stroke-width="1" fill="none">
<line x1="456.926" y1="249.155" x2="457.926" y2="249.155"/>
</g>
<path d="M464.139,376.936v -71.6084" fill="none" stroke="#000099"/>
<path d="M464.139,305.327v -71.6084" fill="none" stroke="#000099"/>
<path d="M461.033,305.327h 3.10646" fill="none" stroke="#000099"/>
<path d="M464.139,305.327h 3.10646" fill="none" stroke="#000099"/>
<g stroke="black" stroke-width="1" fill="none">
<line x1="463.139" y1="305.327" x2="464.139" y2="305.327"/>
</g>
<path d="M470.352,382.935v -82.2884" fill="none" stroke="#000099"/>
<path d="M470.352,300.647v -82.2884" fill="none" stroke="#000099"/>
<path d="M467.246,300.647h 3.10646" fill="none" stroke="#000099"/>
<path d="M470.352,300.647h 3.10646" fill="none" stroke="#000099"/>
<g stroke="black" stroke-width="1" fill="none">
<line x1="469.352" y1="300.647" x2="470.352" y2="300.647"/>
</g>
<path d="M476.565,391.096v -73.2855" fill="none" stroke="#000099"/>
<path d="M476.565,317.81v -73.2855" fill="none" stroke="#000099"/>
<path d="M473.459,317.81h 3.10646" fill="none" stroke="#000099"/>
<path d="M476.565,317.81h 3.10646" fill="none" stroke="#000099"/>
<g stroke="black" stroke-width="1" fill="none">
<line x1="475.565" y1="317.81" x2="476.565" y2="317.81"/>
</g>
<path d="M482.778,280.499v -55.7289" fill="none" stroke="#000099"/>
<path d="M482.778,224.77v -55.7289" fill="none" stroke="#000099"/>
<path d="M479.672,224.77h 3.10646" fill="none" stroke="#000099"/>
<path d="M482.778,224.77h 3.10646" fill="none" stroke="#000099"/>
<g stroke="black" stroke-width="1" fill="none">
<line x1="481.778" y1="224.77" x2="482.778" y2="224.77"/>
</g>
<path d="M488.991,329.75v -113.372" fill="none" stroke="#000099"/>
<path d="M488.991,216.378v -113.372" fill="none" stroke="#000099"/>
<path d="M485.885,216.378h 3.10646" fill="none" stroke="#000099"/>
<path d="M488.991,216.378h 3.10646" fill="none" stroke="#000099"/>
<g stroke="black" stroke-width="1" fill="none">
<line x1="487.991" y1="216.378" x2="488.991" y2="216.378"/>
</g>
<path d="M495.204,400.558v -84.5207" fill="none" stroke="#000099"/>
<path d="M495.204,316.037v -84.5207" fill="none" stroke="#000099"/>
<path d="M492.097,316.037h 3.10646" fill="none" stroke="#000099"/>
<path d="M495.204,316.037h 3.10646" fill="none" stroke="#000099"/>
<g stroke="black" stroke-width="1" fill="none">
<line x1="494.204" y1="316.037" x2="495.204" y2="316.037"/>
</g>
<path d="M501.417,277.904v -84.9893" fill="none" stroke="#000099"/>
<path d="M501.417,192.914v -84.9893" fill="none" stroke="#000099"/>
<path d="M498.31,192.914h 3.10646" fill="none" stroke="#000099"/>
<path d="M501.417,192.914h 3.10646" fill="none" stroke="#000099"/>
<g stroke="black" stroke-width="1" fill="none">
<line x1="500.417" y1="192.914" x2="501.417" y2="192.914"/>
</g>
<path d="M507.63,263.628v -56.9767" fill="none" stroke="#000099"/>
<path d="M507.63,206.651v -56.9767" fill="none" stroke="#000099"/>
<path d="M504.523,206.651h 3.10646" fill="none" stroke="#000099"/>
<path d="M507.63,206.651h 3.10646" fill="none" stroke="#000099"/>
<g stroke="black" stroke-width="1" fill="none">
<line x1="506.63" y1="206.651" x2="507.63" y2="206.651"/>
</g>
<path d="M58.1249,271.56l 1.86388, -0.682881l 1.86388, -0.677681l 1.86388, -0.670388l 1.86388, -0.661027l 1.86388, -0.649625l 1.86388, -0.636218l 1.86388, -0.620847l 1.86388, -0.603561l 1.86388, -0.584411l 1.86388, -0.563457l 1.86388, -0.540765l
 1.86388, -0.516403l 1.86388, -0.490447l 1.86388, -0.462978l 1.86388, -0.43408l 1.86388, -0.403842l 1.86388, -0.372357l 1.86388, -0.339723l 1.86388, -0.306041l 1.86388, -0.271414l 1.86388, -0.235949l 1.86388, -0.199756l 1.86388, -0.162946l 1.86388,
 -0.125634l 1.86388, -0.0879335l 1.86388, -0.0499618l 1.86388, -0.0118359l 1.86388, 0.0263265l 1.86388, 0.0644077l 1.86388, 0.10229l 1.86388, 0.139857l 1.86388, 0.176992l 1.86388, 0.21358l 1.86388, 0.24951l 1.86388, 0.284669l 1.86388, 0.31895l
 1.86388, 0.352246l 1.86388, 0.384455l 1.86388, 0.415478l 1.86388, 0.445218l 1.86388, 0.473584l 1.86388, 0.500488l 1.86388, 0.525847l 1.86388, 0.549584l 1.86388, 0.571624l 1.86388, 0.5919l 1.86388, 0.610348l 1.86388, 0.626913l 1.86388, 0.641543"
 fill="none" stroke="#ff0000" stroke-width="2"/>
<path d="M149.455,268.464l 1.86388, 0.654193l 1.86388, 0.664824l 1.86388, 0.673403l 1.86388, 0.679903l 1.86388, 0.684305l 1.86388, 0.686595l 1.86388, 0.686765l 1.86388, 0.684816l 1.86388, 0.680753l 1.86388, 0.674589l 1.86388, 0.666343l 1.86388,
 0.65604l 1.86388, 0.643712l 1.86388, 0.629397l 1.86388, 0.61314l 1.86388, 0.59499l 1.86388, 0.575004l 1.86388, 0.553243l 1.86388, 0.529775l 1.86388, 0.504671l 1.86388, 0.47801l 1.86388, 0.449873l 1.86388, 0.420348l 1.86388, 0.389526l 1.86388,
 0.357501l 1.86388, 0.324372l 1.86388, 0.290243l 1.86388, 0.255217l 1.86388, 0.219404l 1.86388, 0.182914l 1.86388, 0.145859l 1.86388, 0.108354l 1.86388, 0.0705147l 1.86388, 0.0324576l 1.86388, -0.00569971l 1.86388, -0.0438394l 1.86388, -0.0818438l
 1.86388, -0.119596l 1.86388, -0.156978l 1.86388, -0.193876l 1.86388, -0.230176l 1.86388, -0.265765l 1.86388, -0.300534l 1.86388, -0.334376l 1.86388, -0.367185l 1.86388, -0.398861l 1.86388, -0.429306l 1.86388, -0.458426l 1.86388, -0.486131"
 fill="none" stroke="#ff0000" stroke-width="2"/>
<path d="M240.785,281.052l 1.86388, -0.512335" fill="none" stroke="#ff0000" stroke-width="2"/>
<rect x="351.996" y="35.4331" width="204.094" height="218.05" fill="white"/>
<path d="M351.996,253.483h 204.094" fill="none" stroke="black"/>
<path d="M556.091,253.483v -218.05" fill="none" stroke="black"/>
<path d="M556.091,35.4331h -204.094" fill="none" stroke="black"/>
<path d="M351.996,35.4331v 218.05" fill="none" stroke="black"/>
<text xml:space="preserve" x="374.977" y="54.0384" fill="black" font-size="20.9491" font-family="Helvetica">single_ch0001_0</text>
<path d="M351.996,59.6608h 204.094" fill="none" stroke="black"/>
<text xml:space="preserve" x="361.704" y="76.7914" fill="black" font-size="14.6206" font-family="Helvetica">Entries </text>
<text xml:space="preserve" x="536.144" y="76.7914" fill="black" font-size="14.6206" font-family="Helvetica"> 1</text>
<text xml:space="preserve" x="361.704" y="101.44" fill="black" font-size="14.6206" font-family="Helvetica">Mean  </text>
<text xml:space="preserve" x="502.014" y="101.44" fill="black" font-size="14.6206" font-family="Helvetica">  349.2</text>
<text xml:space="preserve" x="361.704" y="125.142" fill="black" font-size="14.6206" font-family="Helvetica">Std Dev   </text>
<text xml:space="preserve" x="504.858" y="125.142" fill="black" font-size="14.6206" font-family="Helvetica">   1331</text>
<text xml:space="preserve" x="374.977" y="148.843" fill="black" font-size="14.6206" font-family="Helvetica"> / ndf </text>
<text xml:space="preserve" x="369.288" y="144.102" fill="black" font-size="9.91373" font-family="Helvetica">2</text>
<text xml:space="preserve" x="361.704" y="148.843" fill="black" font-size="14.6206" font-family="Times">&#0967;</text>
<text xml:space="preserve" x="478.313" y="149.791" fill="black" font-size="14.6206" font-family="Helvetica"> 23.84 / 27</text>
<text xml:space="preserve" x="361.704" y="173.492" fill="black" font-size="14.6206" font-family="Helvetica">Prob  </text>
<text xml:space="preserve" x="498.222" y="173.492" fill="black" font-size="14.6206" font-family="Helvetica"> 0.6393</text>
<text xml:space="preserve" x="361.704" y="198.141" fill="black" font-size="14.6206" font-family="Helvetica">A        </text>
<text xml:space="preserve" x="490.638" y="198.141" fill="black" font-size="14.6206" font-family="Helvetica"> 0.04749</text>
<text xml:space="preserve" x="482.105" y="198.141" fill="black" font-size="14.6206" font-family="Times">&#0177;</text>
<text xml:space="preserve" x="426.171" y="198.141" fill="black" font-size="14.6206" font-family="Helvetica">0.08506 </text>
<text xml:space="preserve" x="417.638" y="198.141" fill="black" font-size="14.6206" font-family="Times">&#8722;</text>
<text xml:space="preserve" x="412.898" y="198.141" fill="black" font-size="14.6206" font-family="Helvetica"> </text>
<text xml:space="preserve" x="361.704" y="222.79" fill="black" font-size="14.6206" font-family="Helvetica">T        </text>
<text xml:space="preserve" x="505.806" y="222.79" fill="black" font-size="14.6206" font-family="Helvetica"> 773.5</text>
<text xml:space="preserve" x="497.274" y="222.79" fill="black" font-size="14.6206" font-family="Times">&#0177;</text>
<text xml:space="preserve" x="452.716" y="222.79" fill="black" font-size="14.6206" font-family="Helvetica">  3392 </text>
<text xml:space="preserve" x="361.704" y="245.543" fill="black" font-size="14.6206" font-family="Helvetica">t_offset </text>
<text xml:space="preserve" x="506.754" y="246.491" fill="black" font-size="14.6206" font-family="Helvetica"> 561.9</text>
<text xml:space="preserve" x="498.222" y="246.491" fill="black" font-size="14.6206" font-family="Times">&#0177;</text>
<text xml:space="preserve" x="458.404" y="246.491" fill="black" font-size="14.6206" font-family="Helvetica">876.9 </text>
<text xml:space="preserve" x="449.872" y="246.491" fill="black" font-size="14.6206" font-family="Times">&#8722;</text>
<text xml:space="preserve" x="445.132" y="246.491" fill="black" font-size="14.6206" font-family="Helvetica"> </text>
<path d="M57.1929,490.612h 453.543" fill="none" stroke="black"/>
<path d="M57.1929,477.529v 13.083" fill="none" stroke="black"/>
<path d="M69.6188,484.07v 6.54149" fill="none" stroke="black"/>
<path d="M82.0446,484.07v 6.54149" fill="none" stroke="black"/>
<path d="M94.4705,484.07v 6.54149" fill="none" stroke="black"/>
<path d="M106.896,484.07v 6.54149" fill="none" stroke="black"/>
<path d="M119.322,477.529v 13.083" fill="none" stroke="black"/>
<path d="M131.748,484.07v 6.54149" fill="none" stroke="black"/>
<path d="M144.174,484.07v 6.54149" fill="none" stroke="black"/>
<path d="M156.6,484.07v 6.54149" fill="none" stroke="black"/>
<path d="M169.026,484.07v 6.54149" fill="none" stroke="black"/>
<path d="M181.451,477.529v 13.083" fill="none" stroke="black"/>
<path d="M193.877,484.07v 6.54149" fill="none" stroke="black"/>
<path d="M206.303,484.07v 6.54149" fill="none" stroke="black"/>
<path d="M218.729,484.07v 6.54149" fill="none" stroke="black"/>
<path d="M231.155,484.07v 6.54149" fill="none" stroke="black"/>
<path d="M243.581,477.529v 13.083" fill="none" stroke="black"/>
<path d="M256.006,484.07v 6.54149" fill="none" stroke="black"/>
<path d="M268.432,484.07v 6.54149" fill="none" stroke="black"/>
<path d="M280.858,484.07v 6.54149" fill="none" stroke="black"/>
<path d="M293.284,484.07v 6.54149" fill="none" stroke="black"/>
<path d="M305.71,477.529v 13.083" fill="none" stroke="black"/>
<path d="M318.136,484.07v 6.54149" fill="none" stroke="black"/>
<path d="M330.561,484.07v 6.54149" fill="none" stroke="black"/>
<path d="M342.987,484.07v 6.54149" fill="none" stroke="black"/>
<path d="M355.413,484.07v 6.54149" fill="none" stroke="black"/>
<path d="M367.839,477.529v 13.083" fill="none" stroke="black"/>
<path d="M380.265,484.07v 6.54149" fill="none" stroke="black"/>
<path d="M392.691,484.07v 6.54149" fill="none" stroke="black"/>
<path d="M405.117,484.07v 6.54149" fill="none" stroke="black"/>
<path d="M417.542,484.07v 6.54149" fill="none" stroke="black"/>
<path d="M429.968,477.529v 13.083" fill="none" stroke="black"/>
<path d="M442.394,484.07v 6.54149" fill="none" stroke="black"/>
<path d="M454.82,484.07v 6.54149" fill="none" stroke="black"/>
<path d="M467.246,484.07v 6.54149" fill="none" stroke="black"/>
<path d="M479.672,484.07v 6.54149" fill="none" stroke="black"/>
<path d="M492.097,477.529v 13.083" fill="none" stroke="black"/>
<path d="M492.097,477.529v 13.083" fill="none" stroke="black"/>
<path d="M504.523,484.07v 6.54149" fill="none" stroke="black"/>
<text xml:space="preserve" x="51.6943" y="508.151" fill="black" font-size="18.004" font-family="Helvetica">0</text>
<text xml:space="preserve" x="99.0964" y="508.151" fill="black" font-size="18.004" font-family="Helvetica">1000</text>
<text xml:space="preserve" x="160.719" y="508.151" fill="black" font-size="18.004" font-family="Helvetica">2000</text>
<text xml:space="preserve" x="223.29" y="508.151" fill="black" font-size="18.004" font-family="Helvetica">3000</text>
<text xml:space="preserve" x="284.913" y="508.151" fill="black" font-size="18.004" font-family="Helvetica">4000</text>
<text xml:space="preserve" x="347.483" y="508.151" fill="black" font-size="18.004" font-family="Helvetica">5000</text>
<text xml:space="preserve" x="410.054" y="508.151" fill="black" font-size="18.004" font-family="Helvetica">6000</text>
<text xml:space="preserve" x="471.677" y="508.151" fill="black" font-size="18.004" font-family="Helvetica">7000</text>
<text xml:space="preserve" x="443.236" y="525.215" fill="black" font-size="18.004" font-family="Helvetica">time [ns]</text>
<path d="M57.1929,490.612v -436.099" fill="none" stroke="black"/>
<path d="M70.7992,490.612h -13.6063" fill="none" stroke="black"/>
<path d="M63.9961,476.075h -6.80315" fill="none" stroke="black"/>
<path d="M63.9961,461.538h -6.80315" fill="none" stroke="black"/>
<path d="M63.9961,447.002h -6.80315" fill="none" stroke="black"/>
<path d="M63.9961,432.465h -6.80315" fill="none" stroke="black"/>
<path d="M70.7992,417.929h -13.6063" fill="none" stroke="black"/>
<path d="M63.9961,403.392h -6.80315" fill="none" stroke="black"/>
<path d="M63.9961,388.855h -6.80315" fill="none" stroke="black"/>
<path d="M63.9961,374.319h -6.80315" fill="none" stroke="black"/>
<path d="M63.9961,359.782h -6.80315" fill="none" stroke="black"/>
<path d="M70.7992,345.245h -13.6063" fill="none" stroke="black"/>
<path d="M63.9961,330.709h -6.80315" fill="none" stroke="black"/>
<path d="M63.9961,316.172h -6.80315" fill="none" stroke="black"/>
<path d="M63.9961,301.635h -6.80315" fill="none" stroke="black"/>
<path d="M63.9961,287.099h -6.80315" fill="none" stroke="black"/>
<path d="M70.7992,272.562h -13.6063" fill="none" stroke="black"/>
<path d="M63.9961,258.025h -6.80315" fill="none" stroke="black"/>
<path d="M63.9961,243.489h -6.80315" fill="none" stroke="black"/>
<path d="M63.9961,228.952h -6.80315" fill="none" stroke="black"/>
<path d="M63.9961,214.416h -6.80315" fill="none" stroke="black"/>
<path d="M70.7992,199.879h -13.6063" fill="none" stroke="black"/>
<path d="M63.9961,185.342h -6.80315" fill="none" stroke="black"/>
<path d="M63.9961,170.806h -6.80315" fill="none" stroke="black"/>
<path d="M63.9961,156.269h -6.80315" fill="none" stroke="black"/>
<path d="M63.9961,141.732h -6.80315" fill="none" stroke="black"/>
<path d="M70.7992,127.196h -13.6063" fill="none" stroke="black"/>
<path d="M63.9961,112.659h -6.80315" fill="none" stroke="black"/>
<path d="M63.9961,98.1224h -6.80315" fill="none" stroke="black"/>
<path d="M63.9961,83.5857h -6.80315" fill="none" stroke="black"/>
<path d="M63.9961,69.0491h -6.80315" fill="none" stroke="black"/>
<path d="M70.7992,54.5124h -13.6063" fill="none" stroke="black"/>
<text xml:space="preserve" x="28.9413" y="496.774" fill="black" font-size="18.004" font-family="Helvetica">1.5</text>
<text xml:space="preserve" x="18.5128" y="496.774" fill="black" font-size="18.004" font-family="Times">&#8722;</text>
<text xml:space="preserve" x="46.9541" y="424.723" fill="black" font-size="18.004" font-family="Helvetica">1</text>
<text xml:space="preserve" x="36.5256" y="424.723" fill="black" font-size="18.004" font-family="Times">&#8722;</text>
<text xml:space="preserve" x="28.9413" y="351.724" fill="black" font-size="18.004" font-family="Helvetica">0.5</text>
<text xml:space="preserve" x="18.5128" y="351.724" fill="black" font-size="18.004" font-family="Times">&#8722;</text>
<text xml:space="preserve" x="44.1099" y="278.724" fill="black" font-size="18.004" font-family="Helvetica">0</text>
<text xml:space="preserve" x="28.9413" y="205.725" fill="black" font-size="18.004" font-family="Helvetica">0.5</text>
<text xml:space="preserve" x="46.9541" y="134.622" fill="black" font-size="18.004" font-family="Helvetica">1</text>
<text xml:space="preserve" x="28.9413" y="60.6747" fill="black" font-size="18.004" font-family="Helvetica">1.5</text>
<rect x="351.996" y="35.4331" width="204.094" height="218.05" fill="white"/>
<path d="M351.996,253.483h 204.094" fill="none" stroke="black"/>
<path d="M556.091,253.483v -218.05" fill="none" stroke="black"/>
<path d="M556.091,35.4331h -204.094" fill="none" stroke="black"/>
<path d="M351.996,35.4331v 218.05" fill="none" stroke="black"/>
<text xml:space="preserve" x="374.977" y="54.0384" fill="black" font-size="20.9491" font-family="Helvetica">single_ch0001_0</text>
<path d="M351.996,59.6608h 204.094" fill="none" stroke="black"/>
<text xml:space="preserve" x="361.704" y="76.7914" fill="black" font-size="14.6206" font-family="Helvetica">Entries </text>
<text xml:space="preserve" x="536.144" y="76.7914" fill="black" font-size="14.6206" font-family="Helvetica"> 1</text>
<text xml:space="preserve" x="361.704" y="101.44" fill="black" font-size="14.6206" font-family="Helvetica">Mean  </text>
<text xml:space="preserve" x="502.014" y="101.44" fill="black" font-size="14.6206" font-family="Helvetica">  349.2</text>
<text xml:space="preserve" x="361.704" y="125.142" fill="black" font-size="14.6206" font-family="Helvetica">Std Dev   </text>
<text xml:space="preserve" x="504.858" y="125.142" fill="black" font-size="14.6206" font-family="Helvetica">   1331</text>
<text xml:space="preserve" x="374.977" y="148.843" fill="black" font-size="14.6206" font-family="Helvetica"> / ndf </text>
<text xml:space="preserve" x="369.288" y="144.102" fill="black" font-size="9.91373" font-family="Helvetica">2</text>
<text xml:space="preserve" x="361.704" y="148.843" fill="black" font-size="14.6206" font-family="Times">&#0967;</text>
<text xml:space="preserve" x="478.313" y="149.791" fill="black" font-size="14.6206" font-family="Helvetica"> 23.84 / 27</text>
<text xml:space="preserve" x="361.704" y="173.492" fill="black" font-size="14.6206" font-family="Helvetica">Prob  </text>
<text xml:space="preserve" x="498.222" y="173.492" fill="black" font-size="14.6206" font-family="Helvetica"> 0.6393</text>
<text xml:space="preserve" x="361.704" y="198.141" fill="black" font-size="14.6206" font-family="Helvetica">A        </text>
<text xml:space="preserve" x="490.638" y="198.141" fill="black" font-size="14.6206" font-family="Helvetica"> 0.04749</text>
<text xml:space="preserve" x="482.105" y="198.141" fill="black" font-size="14.6206" font-family="Times">&#0177;</text>
<text xml:space="preserve" x="426.171" y="198.141" fill="black" font-size="14.6206" font-family="Helvetica">0.08506 </text>
<text xml:space="preserve" x="417.638" y="198.141" fill="black" font-size="14.6206" font-family="Times">&#8722;</text>
<text xml:space="preserve" x="412.898" y="198.141" fill="black" font-size="14.6206" font-family="Helvetica"> </text>
<text xml:space="preserve" x="361.704" y="222.79" fill="black" font-size="14.6206" font-family="Helvetica">T        </text>
<text xml:space="preserve" x="505.806" y="222.79" fill="black" font-size="14.6206" font-family="Helvetica"> 773.5</text>
<text xml:space="preserve" x="497.274" y="222.79" fill="black" font-size="14.6206" font-family="Times">&#0177;</text>
<text xml:space="preserve" x="452.716" y="222.79" fill="black" font-size="14.6206" font-family="Helvetica">  3392 </text>
<text xml:space="preserve" x="361.704" y="245.543" fill="black" font-size="14.6206" font-family="Helvetica">t_offset </text>
<text xml:space="preserve" x="506.754" y="246.491" fill="black" font-size="14.6206" font-family="Helvetica"> 561.9</text>
<text xml:space="preserve" x="498.222" y="246.491" fill="black" font-size="14.6206" font-family="Times">&#0177;</text>
<text xml:space="preserve" x="458.404" y="246.491" fill="black" font-size="14.6206" font-family="Helvetica">876.9 </text>
<text xml:space="preserve" x="449.872" y="246.491" fill="black" font-size="14.6206" font-family="Times">&#8722;</text>
<text xml:space="preserve" x="445.132" y="246.491" fill="black" font-size="14.6206" font-family="Helvetica"> </text>
<text xml:space="preserve" x="226.134" y="22.753" fill="black" font-size="23.8803" font-family="Helvetica">asymmetry</text></svg>
