<?xml version="1.0" standalone="no"?>
<svg width="567.429" height="437.476" viewBox="0 0 567.429 437.476" xmlns="http://www.w3.org/2000/svg" shape-rendering="crispEdges">
<title>
/Users/masaki/Desktop/kek/asymmetry_result6.svg
</title>
<desc>
Creator: ROOT Version 6.26/06
CreationDate: Sat Sep  3 22:33:54 2022</desc>
<defs>
</defs>
<rect x="0.5" y="0" width="566.929" height="436.976" fill="white"/>
<rect x="56.7369" y="43.3176" width="348.821" height="328.302" fill="white"/>
<rect x="56.7369" y="43.3176" width="348.821" height="328.302" fill="none" stroke="black"/>
<rect x="56.7369" y="43.3176" width="348.821" height="328.302" fill="white"/>
<rect x="56.7369" y="43.3176" width="348.821" height="328.302" fill="none" stroke="black"/>
<path d="M59.1261,233.67v -10.795" fill="none" stroke="#000099"/>
<path d="M59.1261,222.875v -10.795" fill="none" stroke="#000099"/>
<path d="M56.7369,222.875h 2.38918" fill="none" stroke="#000099"/>
<path d="M59.1261,222.875h 2.38918" fill="none" stroke="#000099"/>
<g stroke="black" stroke-width="1" fill="none">
<line x1="58.1261" y1="222.875" x2="59.1261" y2="222.875"/>
</g>
<path d="M63.9045,286.151v -15.9522" fill="none" stroke="#000099"/>
<path d="M63.9045,270.199v -15.9522" fill="none" stroke="#000099"/>
<path d="M61.5153,270.199h 2.38918" fill="none" stroke="#000099"/>
<path d="M63.9045,270.199h 2.38918" fill="none" stroke="#000099"/>
<g stroke="black" stroke-width="1" fill="none">
<line x1="62.9045" y1="270.199" x2="63.9045" y2="270.199"/>
</g>
<path d="M68.6829,210.823v -18.0613" fill="none" stroke="#000099"/>
<path d="M68.6829,192.762v -18.0613" fill="none" stroke="#000099"/>
<path d="M66.2937,192.762h 2.38918" fill="none" stroke="#000099"/>
<path d="M68.6829,192.762h 2.38918" fill="none" stroke="#000099"/>
<g stroke="black" stroke-width="1" fill="none">
<line x1="67.6829" y1="192.762" x2="68.6829" y2="192.762"/>
</g>
<path d="M73.4612,205.32v -19.7757" fill="none" stroke="#000099"/>
<path d="M73.4612,185.544v -19.7757" fill="none" stroke="#000099"/>
<path d="M71.0721,185.544h 2.38918" fill="none" stroke="#000099"/>
<path d="M73.4612,185.544h 2.38918" fill="none" stroke="#000099"/>
<g stroke="black" stroke-width="1" fill="none">
<line x1="72.4612" y1="185.544" x2="73.4612" y2="185.544"/>
</g>
<path d="M78.2396,184.386v -19.3264" fill="none" stroke="#000099"/>
<path d="M78.2396,165.06v -19.3264" fill="none" stroke="#000099"/>
<path d="M75.8504,165.06h 2.38918" fill="none" stroke="#000099"/>
<path d="M78.2396,165.06h 2.38918" fill="none" stroke="#000099"/>
<g stroke="black" stroke-width="1" fill="none">
<line x1="77.2396" y1="165.06" x2="78.2396" y2="165.06"/>
</g>
<path d="M83.018,203.446v -20.1743" fill="none" stroke="#000099"/>
<path d="M83.018,183.272v -20.1743" fill="none" stroke="#000099"/>
<path d="M80.6288,183.272h 2.38918" fill="none" stroke="#000099"/>
<path d="M83.018,183.272h 2.38918" fill="none" stroke="#000099"/>
<g stroke="black" stroke-width="1" fill="none">
<line x1="82.018" y1="183.272" x2="83.018" y2="183.272"/>
</g>
<path d="M87.7963,182.735v -21.0078" fill="none" stroke="#000099"/>
<path d="M87.7963,161.728v -21.0078" fill="none" stroke="#000099"/>
<path d="M85.4072,161.728h 2.38918" fill="none" stroke="#000099"/>
<path d="M87.7963,161.728h 2.38918" fill="none" stroke="#000099"/>
<g stroke="black" stroke-width="1" fill="none">
<line x1="86.7963" y1="161.728" x2="87.7963" y2="161.728"/>
</g>
<path d="M92.5747,187.852v -22.2521" fill="none" stroke="#000099"/>
<path d="M92.5747,165.6v -22.2521" fill="none" stroke="#000099"/>
<path d="M90.1855,165.6h 2.38918" fill="none" stroke="#000099"/>
<path d="M92.5747,165.6h 2.38918" fill="none" stroke="#000099"/>
<g stroke="black" stroke-width="1" fill="none">
<line x1="91.5747" y1="165.6" x2="92.5747" y2="165.6"/>
</g>
<path d="M97.3531,241.114v -22.6313" fill="none" stroke="#000099"/>
<path d="M97.3531,218.482v -22.6313" fill="none" stroke="#000099"/>
<path d="M94.9639,218.482h 2.38918" fill="none" stroke="#000099"/>
<path d="M97.3531,218.482h 2.38918" fill="none" stroke="#000099"/>
<g stroke="black" stroke-width="1" fill="none">
<line x1="96.3531" y1="218.482" x2="97.3531" y2="218.482"/>
</g>
<path d="M102.131,225.282v -23.2016" fill="none" stroke="#000099"/>
<path d="M102.131,202.081v -23.2016" fill="none" stroke="#000099"/>
<path d="M99.7423,202.081h 2.38918" fill="none" stroke="#000099"/>
<path d="M102.131,202.081h 2.38918" fill="none" stroke="#000099"/>
<g stroke="black" stroke-width="1" fill="none">
<line x1="101.131" y1="202.081" x2="102.131" y2="202.081"/>
</g>
<path d="M106.91,174.951v -24.6936" fill="none" stroke="#000099"/>
<path d="M106.91,150.257v -24.6936" fill="none" stroke="#000099"/>
<path d="M104.521,150.257h 2.38918" fill="none" stroke="#000099"/>
<path d="M106.91,150.257h 2.38918" fill="none" stroke="#000099"/>
<g stroke="black" stroke-width="1" fill="none">
<line x1="105.91" y1="150.257" x2="106.91" y2="150.257"/>
</g>
<path d="M111.688,197.317v -24.6089" fill="none" stroke="#000099"/>
<path d="M111.688,172.708v -24.6089" fill="none" stroke="#000099"/>
<path d="M109.299,172.708h 2.38918" fill="none" stroke="#000099"/>
<path d="M111.688,172.708h 2.38918" fill="none" stroke="#000099"/>
<g stroke="black" stroke-width="1" fill="none">
<line x1="110.688" y1="172.708" x2="111.688" y2="172.708"/>
</g>
<path d="M116.467,195.026v -24.3724" fill="none" stroke="#000099"/>
<path d="M116.467,170.653v -24.3724" fill="none" stroke="#000099"/>
<path d="M114.077,170.653h 2.38918" fill="none" stroke="#000099"/>
<path d="M116.467,170.653h 2.38918" fill="none" stroke="#000099"/>
<g stroke="black" stroke-width="1" fill="none">
<line x1="115.467" y1="170.653" x2="116.467" y2="170.653"/>
</g>
<path d="M121.245,191.931v -24.8739" fill="none" stroke="#000099"/>
<path d="M121.245,167.057v -24.8739" fill="none" stroke="#000099"/>
<path d="M118.856,167.057h 2.38918" fill="none" stroke="#000099"/>
<path d="M121.245,167.057h 2.38918" fill="none" stroke="#000099"/>
<g stroke="black" stroke-width="1" fill="none">
<line x1="120.245" y1="167.057" x2="121.245" y2="167.057"/>
</g>
<path d="M126.023,204.97v -24.843" fill="none" stroke="#000099"/>
<path d="M126.023,180.127v -24.843" fill="none" stroke="#000099"/>
<path d="M123.634,180.127h 2.38918" fill="none" stroke="#000099"/>
<path d="M126.023,180.127h 2.38918" fill="none" stroke="#000099"/>
<g stroke="black" stroke-width="1" fill="none">
<line x1="125.023" y1="180.127" x2="126.023" y2="180.127"/>
</g>
<path d="M130.802,174.636v -28.0084" fill="none" stroke="#000099"/>
<path d="M130.802,146.627v -28.0084" fill="none" stroke="#000099"/>
<path d="M128.412,146.627h 2.38918" fill="none" stroke="#000099"/>
<path d="M130.802,146.627h 2.38918" fill="none" stroke="#000099"/>
<g stroke="black" stroke-width="1" fill="none">
<line x1="129.802" y1="146.627" x2="130.802" y2="146.627"/>
</g>
<path d="M135.58,187.522v -26.9728" fill="none" stroke="#000099"/>
<path d="M135.58,160.549v -26.9728" fill="none" stroke="#000099"/>
<path d="M133.191,160.549h 2.38918" fill="none" stroke="#000099"/>
<path d="M135.58,160.549h 2.38918" fill="none" stroke="#000099"/>
<g stroke="black" stroke-width="1" fill="none">
<line x1="134.58" y1="160.549" x2="135.58" y2="160.549"/>
</g>
<path d="M140.358,200.761v -28.3734" fill="none" stroke="#000099"/>
<path d="M140.358,172.387v -28.3734" fill="none" stroke="#000099"/>
<path d="M137.969,172.387h 2.38918" fill="none" stroke="#000099"/>
<path d="M140.358,172.387h 2.38918" fill="none" stroke="#000099"/>
<g stroke="black" stroke-width="1" fill="none">
<line x1="139.358" y1="172.387" x2="140.358" y2="172.387"/>
</g>
<path d="M145.137,305.844v -31.0126" fill="none" stroke="#000099"/>
<path d="M145.137,274.831v -31.0126" fill="none" stroke="#000099"/>
<path d="M142.748,274.831h 2.38918" fill="none" stroke="#000099"/>
<path d="M145.137,274.831h 2.38918" fill="none" stroke="#000099"/>
<g stroke="black" stroke-width="1" fill="none">
<line x1="144.137" y1="274.831" x2="145.137" y2="274.831"/>
</g>
<path d="M149.915,242.972v -30.7566" fill="none" stroke="#000099"/>
<path d="M149.915,212.216v -30.7566" fill="none" stroke="#000099"/>
<path d="M147.526,212.216h 2.38918" fill="none" stroke="#000099"/>
<path d="M149.915,212.216h 2.38918" fill="none" stroke="#000099"/>
<g stroke="black" stroke-width="1" fill="none">
<line x1="148.915" y1="212.216" x2="149.915" y2="212.216"/>
</g>
<path d="M154.694,247.071v -32.2358" fill="none" stroke="#000099"/>
<path d="M154.694,214.836v -32.2358" fill="none" stroke="#000099"/>
<path d="M152.304,214.836h 2.38918" fill="none" stroke="#000099"/>
<path d="M154.694,214.836h 2.38918" fill="none" stroke="#000099"/>
<g stroke="black" stroke-width="1" fill="none">
<line x1="153.694" y1="214.836" x2="154.694" y2="214.836"/>
</g>
<path d="M159.472,253.152v -33.5111" fill="none" stroke="#000099"/>
<path d="M159.472,219.641v -33.5111" fill="none" stroke="#000099"/>
<path d="M157.083,219.641h 2.38918" fill="none" stroke="#000099"/>
<path d="M159.472,219.641h 2.38918" fill="none" stroke="#000099"/>
<g stroke="black" stroke-width="1" fill="none">
<line x1="158.472" y1="219.641" x2="159.472" y2="219.641"/>
</g>
<path d="M164.25,287.855v -34.8296" fill="none" stroke="#000099"/>
<path d="M164.25,253.025v -34.8296" fill="none" stroke="#000099"/>
<path d="M161.861,253.025h 2.38918" fill="none" stroke="#000099"/>
<path d="M164.25,253.025h 2.38918" fill="none" stroke="#000099"/>
<g stroke="black" stroke-width="1" fill="none">
<line x1="163.25" y1="253.025" x2="164.25" y2="253.025"/>
</g>
<path d="M169.029,228.132v -32.8211" fill="none" stroke="#000099"/>
<path d="M169.029,195.31v -32.8211" fill="none" stroke="#000099"/>
<path d="M166.639,195.31h 2.38918" fill="none" stroke="#000099"/>
<path d="M169.029,195.31h 2.38918" fill="none" stroke="#000099"/>
<g stroke="black" stroke-width="1" fill="none">
<line x1="168.029" y1="195.31" x2="169.029" y2="195.31"/>
</g>
<path d="M173.807,217.749v -32.8959" fill="none" stroke="#000099"/>
<path d="M173.807,184.853v -32.8959" fill="none" stroke="#000099"/>
<path d="M171.418,184.853h 2.38918" fill="none" stroke="#000099"/>
<path d="M173.807,184.853h 2.38918" fill="none" stroke="#000099"/>
<g stroke="black" stroke-width="1" fill="none">
<line x1="172.807" y1="184.853" x2="173.807" y2="184.853"/>
</g>
<path d="M178.585,266.727v -34.5211" fill="none" stroke="#000099"/>
<path d="M178.585,232.206v -34.5211" fill="none" stroke="#000099"/>
<path d="M176.196,232.206h 2.38918" fill="none" stroke="#000099"/>
<path d="M178.585,232.206h 2.38918" fill="none" stroke="#000099"/>
<g stroke="black" stroke-width="1" fill="none">
<line x1="177.585" y1="232.206" x2="178.585" y2="232.206"/>
</g>
<path d="M183.364,249.348v -34.498" fill="none" stroke="#000099"/>
<path d="M183.364,214.85v -34.498" fill="none" stroke="#000099"/>
<path d="M180.975,214.85h 2.38918" fill="none" stroke="#000099"/>
<path d="M183.364,214.85h 2.38918" fill="none" stroke="#000099"/>
<g stroke="black" stroke-width="1" fill="none">
<line x1="182.364" y1="214.85" x2="183.364" y2="214.85"/>
</g>
<path d="M188.142,238.491v -35.2405" fill="none" stroke="#000099"/>
<path d="M188.142,203.251v -35.2405" fill="none" stroke="#000099"/>
<path d="M185.753,203.251h 2.38918" fill="none" stroke="#000099"/>
<path d="M188.142,203.251h 2.38918" fill="none" stroke="#000099"/>
<g stroke="black" stroke-width="1" fill="none">
<line x1="187.142" y1="203.251" x2="188.142" y2="203.251"/>
</g>
<path d="M192.92,229.833v -39.0118" fill="none" stroke="#000099"/>
<path d="M192.92,190.821v -39.0118" fill="none" stroke="#000099"/>
<path d="M190.531,190.821h 2.38918" fill="none" stroke="#000099"/>
<path d="M192.92,190.821h 2.38918" fill="none" stroke="#000099"/>
<g stroke="black" stroke-width="1" fill="none">
<line x1="191.92" y1="190.821" x2="192.92" y2="190.821"/>
</g>
<path d="M197.699,224.616v -44.3204" fill="none" stroke="#000099"/>
<path d="M197.699,180.296v -44.3204" fill="none" stroke="#000099"/>
<path d="M195.31,180.296h 2.38918" fill="none" stroke="#000099"/>
<path d="M197.699,180.296h 2.38918" fill="none" stroke="#000099"/>
<g stroke="black" stroke-width="1" fill="none">
<line x1="196.699" y1="180.296" x2="197.699" y2="180.296"/>
</g>
<path d="M202.477,248.521v -42.1852" fill="none" stroke="#000099"/>
<path d="M202.477,206.336v -42.1852" fill="none" stroke="#000099"/>
<path d="M200.088,206.336h 2.38918" fill="none" stroke="#000099"/>
<path d="M202.477,206.336h 2.38918" fill="none" stroke="#000099"/>
<g stroke="black" stroke-width="1" fill="none">
<line x1="201.477" y1="206.336" x2="202.477" y2="206.336"/>
</g>
<path d="M207.256,252.252v -41.2079" fill="none" stroke="#000099"/>
<path d="M207.256,211.044v -41.2079" fill="none" stroke="#000099"/>
<path d="M204.866,211.044h 2.38918" fill="none" stroke="#000099"/>
<path d="M207.256,211.044h 2.38918" fill="none" stroke="#000099"/>
<g stroke="black" stroke-width="1" fill="none">
<line x1="206.256" y1="211.044" x2="207.256" y2="211.044"/>
</g>
<path d="M212.034,223.354v -40.6113" fill="none" stroke="#000099"/>
<path d="M212.034,182.743v -40.6113" fill="none" stroke="#000099"/>
<path d="M209.645,182.743h 2.38918" fill="none" stroke="#000099"/>
<path d="M212.034,182.743h 2.38918" fill="none" stroke="#000099"/>
<g stroke="black" stroke-width="1" fill="none">
<line x1="211.034" y1="182.743" x2="212.034" y2="182.743"/>
</g>
<path d="M216.812,234.83v -46.5025" fill="none" stroke="#000099"/>
<path d="M216.812,188.327v -46.5025" fill="none" stroke="#000099"/>
<path d="M214.423,188.327h 2.38918" fill="none" stroke="#000099"/>
<path d="M216.812,188.327h 2.38918" fill="none" stroke="#000099"/>
<g stroke="black" stroke-width="1" fill="none">
<line x1="215.812" y1="188.327" x2="216.812" y2="188.327"/>
</g>
<path d="M221.591,229.469v -43.1723" fill="none" stroke="#000099"/>
<path d="M221.591,186.297v -43.1723" fill="none" stroke="#000099"/>
<path d="M219.202,186.297h 2.38918" fill="none" stroke="#000099"/>
<path d="M221.591,186.297h 2.38918" fill="none" stroke="#000099"/>
<g stroke="black" stroke-width="1" fill="none">
<line x1="220.591" y1="186.297" x2="221.591" y2="186.297"/>
</g>
<path d="M226.369,179.753v -46.6133" fill="none" stroke="#000099"/>
<path d="M226.369,133.14v -46.6133" fill="none" stroke="#000099"/>
<path d="M223.98,133.14h 2.38918" fill="none" stroke="#000099"/>
<path d="M226.369,133.14h 2.38918" fill="none" stroke="#000099"/>
<g stroke="black" stroke-width="1" fill="none">
<line x1="225.369" y1="133.14" x2="226.369" y2="133.14"/>
</g>
<path d="M231.147,221.057v -49.7747" fill="none" stroke="#000099"/>
<path d="M231.147,171.282v -49.7747" fill="none" stroke="#000099"/>
<path d="M228.758,171.282h 2.38918" fill="none" stroke="#000099"/>
<path d="M231.147,171.282h 2.38918" fill="none" stroke="#000099"/>
<g stroke="black" stroke-width="1" fill="none">
<line x1="230.147" y1="171.282" x2="231.147" y2="171.282"/>
</g>
<path d="M235.926,254.263v -49.3961" fill="none" stroke="#000099"/>
<path d="M235.926,204.867v -49.3961" fill="none" stroke="#000099"/>
<path d="M233.537,204.867h 2.38918" fill="none" stroke="#000099"/>
<path d="M235.926,204.867h 2.38918" fill="none" stroke="#000099"/>
<g stroke="black" stroke-width="1" fill="none">
<line x1="234.926" y1="204.867" x2="235.926" y2="204.867"/>
</g>
<path d="M240.704,254.26v -46.399" fill="none" stroke="#000099"/>
<path d="M240.704,207.861v -46.399" fill="none" stroke="#000099"/>
<path d="M238.315,207.861h 2.38918" fill="none" stroke="#000099"/>
<path d="M240.704,207.861h 2.38918" fill="none" stroke="#000099"/>
<g stroke="black" stroke-width="1" fill="none">
<line x1="239.704" y1="207.861" x2="240.704" y2="207.861"/>
</g>
<path d="M245.483,214.188v -53.8685" fill="none" stroke="#000099"/>
<path d="M245.483,160.319v -53.8685" fill="none" stroke="#000099"/>
<path d="M243.093,160.319h 2.38918" fill="none" stroke="#000099"/>
<path d="M245.483,160.319h 2.38918" fill="none" stroke="#000099"/>
<g stroke="black" stroke-width="1" fill="none">
<line x1="244.483" y1="160.319" x2="245.483" y2="160.319"/>
</g>
<path d="M250.261,239.36v -56.1962" fill="none" stroke="#000099"/>
<path d="M250.261,183.163v -56.1962" fill="none" stroke="#000099"/>
<path d="M247.872,183.163h 2.38918" fill="none" stroke="#000099"/>
<path d="M250.261,183.163h 2.38918" fill="none" stroke="#000099"/>
<g stroke="black" stroke-width="1" fill="none">
<line x1="249.261" y1="183.163" x2="250.261" y2="183.163"/>
</g>
<path d="M255.039,199.506v -52.2137" fill="none" stroke="#000099"/>
<path d="M255.039,147.292v -52.2137" fill="none" stroke="#000099"/>
<path d="M252.65,147.292h 2.38918" fill="none" stroke="#000099"/>
<path d="M255.039,147.292h 2.38918" fill="none" stroke="#000099"/>
<g stroke="black" stroke-width="1" fill="none">
<line x1="254.039" y1="147.292" x2="255.039" y2="147.292"/>
</g>
<path d="M259.818,179.405v -58.3872" fill="none" stroke="#000099"/>
<path d="M259.818,121.018v -58.3872" fill="none" stroke="#000099"/>
<path d="M257.428,121.018h 2.38918" fill="none" stroke="#000099"/>
<path d="M259.818,121.018h 2.38918" fill="none" stroke="#000099"/>
<g stroke="black" stroke-width="1" fill="none">
<line x1="258.818" y1="121.018" x2="259.818" y2="121.018"/>
</g>
<path d="M264.596,263.354v -58.105" fill="none" stroke="#000099"/>
<path d="M264.596,205.249v -58.105" fill="none" stroke="#000099"/>
<path d="M262.207,205.249h 2.38918" fill="none" stroke="#000099"/>
<path d="M264.596,205.249h 2.38918" fill="none" stroke="#000099"/>
<g stroke="black" stroke-width="1" fill="none">
<line x1="263.596" y1="205.249" x2="264.596" y2="205.249"/>
</g>
<path d="M269.374,339.649v -67.4148" fill="none" stroke="#000099"/>
<path d="M269.374,272.234v -67.4148" fill="none" stroke="#000099"/>
<path d="M266.985,272.234h 2.38918" fill="none" stroke="#000099"/>
<path d="M269.374,272.234h 2.38918" fill="none" stroke="#000099"/>
<g stroke="black" stroke-width="1" fill="none">
<line x1="268.374" y1="272.234" x2="269.374" y2="272.234"/>
</g>
<path d="M274.153,214.456v -64.9007" fill="none" stroke="#000099"/>
<path d="M274.153,149.556v -64.9007" fill="none" stroke="#000099"/>
<path d="M271.764,149.556h 2.38918" fill="none" stroke="#000099"/>
<path d="M274.153,149.556h 2.38918" fill="none" stroke="#000099"/>
<g stroke="black" stroke-width="1" fill="none">
<line x1="273.153" y1="149.556" x2="274.153" y2="149.556"/>
</g>
<path d="M278.931,210.664v -56.9309" fill="none" stroke="#000099"/>
<path d="M278.931,153.733v -56.9309" fill="none" stroke="#000099"/>
<path d="M276.542,153.733h 2.38918" fill="none" stroke="#000099"/>
<path d="M278.931,153.733h 2.38918" fill="none" stroke="#000099"/>
<g stroke="black" stroke-width="1" fill="none">
<line x1="277.931" y1="153.733" x2="278.931" y2="153.733"/>
</g>
<path d="M283.71,206.431v -60.5548" fill="none" stroke="#000099"/>
<path d="M283.71,145.876v -60.5548" fill="none" stroke="#000099"/>
<path d="M281.32,145.876h 2.38918" fill="none" stroke="#000099"/>
<path d="M283.71,145.876h 2.38918" fill="none" stroke="#000099"/>
<g stroke="black" stroke-width="1" fill="none">
<line x1="282.71" y1="145.876" x2="283.71" y2="145.876"/>
</g>
<path d="M288.488,311.987v -60.0264" fill="none" stroke="#000099"/>
<path d="M288.488,251.961v -60.0264" fill="none" stroke="#000099"/>
<path d="M286.099,251.961h 2.38918" fill="none" stroke="#000099"/>
<path d="M288.488,251.961h 2.38918" fill="none" stroke="#000099"/>
<g stroke="black" stroke-width="1" fill="none">
<line x1="287.488" y1="251.961" x2="288.488" y2="251.961"/>
</g>
<path d="M293.266,190.372v -71.1378" fill="none" stroke="#000099"/>
<path d="M293.266,119.234v -71.1378" fill="none" stroke="#000099"/>
<path d="M290.877,119.234h 2.38918" fill="none" stroke="#000099"/>
<path d="M293.266,119.234h 2.38918" fill="none" stroke="#000099"/>
<g stroke="black" stroke-width="1" fill="none">
<line x1="292.266" y1="119.234" x2="293.266" y2="119.234"/>
</g>
<path d="M298.045,218.337v -64.3092" fill="none" stroke="#000099"/>
<path d="M298.045,154.028v -64.3092" fill="none" stroke="#000099"/>
<path d="M295.655,154.028h 2.38918" fill="none" stroke="#000099"/>
<path d="M298.045,154.028h 2.38918" fill="none" stroke="#000099"/>
<g stroke="black" stroke-width="1" fill="none">
<line x1="297.045" y1="154.028" x2="298.045" y2="154.028"/>
</g>
<path d="M302.823,265.923v -75.7157" fill="none" stroke="#000099"/>
<path d="M302.823,190.207v -75.7157" fill="none" stroke="#000099"/>
<path d="M300.434,190.207h 2.38918" fill="none" stroke="#000099"/>
<path d="M302.823,190.207h 2.38918" fill="none" stroke="#000099"/>
<g stroke="black" stroke-width="1" fill="none">
<line x1="301.823" y1="190.207" x2="302.823" y2="190.207"/>
</g>
<path d="M307.601,256.653v -73.7909" fill="none" stroke="#000099"/>
<path d="M307.601,182.862v -73.7909" fill="none" stroke="#000099"/>
<path d="M305.212,182.862h 2.38918" fill="none" stroke="#000099"/>
<path d="M307.601,182.862h 2.38918" fill="none" stroke="#000099"/>
<g stroke="black" stroke-width="1" fill="none">
<line x1="306.601" y1="182.862" x2="307.601" y2="182.862"/>
</g>
<path d="M312.38,357.452v -83.0916" fill="none" stroke="#000099"/>
<path d="M312.38,274.361v -83.0916" fill="none" stroke="#000099"/>
<path d="M309.991,274.361h 2.38918" fill="none" stroke="#000099"/>
<path d="M312.38,274.361h 2.38918" fill="none" stroke="#000099"/>
<g stroke="black" stroke-width="1" fill="none">
<line x1="311.38" y1="274.361" x2="312.38" y2="274.361"/>
</g>
<path d="M317.158,219.087v -95.2852" fill="none" stroke="#000099"/>
<path d="M317.158,123.802v -80.4845" fill="none" stroke="#000099"/>
<path d="M314.769,123.802h 2.38918" fill="none" stroke="#000099"/>
<path d="M317.158,123.802h 2.38918" fill="none" stroke="#000099"/>
<g stroke="black" stroke-width="1" fill="none">
<line x1="316.158" y1="123.802" x2="317.158" y2="123.802"/>
</g>
<path d="M321.936,314.362v -75.2748" fill="none" stroke="#000099"/>
<path d="M321.936,239.087v -75.2748" fill="none" stroke="#000099"/>
<path d="M319.547,239.087h 2.38918" fill="none" stroke="#000099"/>
<path d="M321.936,239.087h 2.38918" fill="none" stroke="#000099"/>
<g stroke="black" stroke-width="1" fill="none">
<line x1="320.936" y1="239.087" x2="321.936" y2="239.087"/>
</g>
<path d="M326.715,171.259v -77.4481" fill="none" stroke="#000099"/>
<path d="M326.715,93.811v -50.4933" fill="none" stroke="#000099"/>
<path d="M324.326,93.811h 2.38918" fill="none" stroke="#000099"/>
<path d="M326.715,93.811h 2.38918" fill="none" stroke="#000099"/>
<g stroke="black" stroke-width="1" fill="none">
<line x1="325.715" y1="93.811" x2="326.715" y2="93.811"/>
</g>
<path d="M331.493,151.325v -92.7729" fill="none" stroke="#000099"/>
<path d="M331.493,58.5522v -15.2346" fill="none" stroke="#000099"/>
<path d="M329.104,58.5522h 2.38918" fill="none" stroke="#000099"/>
<path d="M331.493,58.5522h 2.38918" fill="none" stroke="#000099"/>
<g stroke="black" stroke-width="1" fill="none">
<line x1="330.493" y1="58.5522" x2="331.493" y2="58.5522"/>
</g>
<path d="M336.272,292.081v -79.2466" fill="none" stroke="#000099"/>
<path d="M336.272,212.835v -79.2466" fill="none" stroke="#000099"/>
<path d="M333.882,212.835h 2.38918" fill="none" stroke="#000099"/>
<path d="M336.272,212.835h 2.38918" fill="none" stroke="#000099"/>
<g stroke="black" stroke-width="1" fill="none">
<line x1="335.272" y1="212.835" x2="336.272" y2="212.835"/>
</g>
<path d="M345.828,308.966v -127.126" fill="none" stroke="#000099"/>
<path d="M345.828,181.84v -127.126" fill="none" stroke="#000099"/>
<path d="M343.439,181.84h 2.38918" fill="none" stroke="#000099"/>
<path d="M345.828,181.84h 2.38918" fill="none" stroke="#000099"/>
<g stroke="black" stroke-width="1" fill="none">
<line x1="344.828" y1="181.84" x2="345.828" y2="181.84"/>
</g>
<path d="M350.607,371.62v -66.3168" fill="none" stroke="#000099"/>
<path d="M350.607,305.303v -143.511" fill="none" stroke="#000099"/>
<path d="M348.217,305.303h 2.38918" fill="none" stroke="#000099"/>
<path d="M350.607,305.303h 2.38918" fill="none" stroke="#000099"/>
<g stroke="black" stroke-width="1" fill="none">
<line x1="349.607" y1="305.303" x2="350.607" y2="305.303"/>
</g>
<path d="M355.385,286.311v -91.5003" fill="none" stroke="#000099"/>
<path d="M355.385,194.81v -91.5003" fill="none" stroke="#000099"/>
<path d="M352.996,194.81h 2.38918" fill="none" stroke="#000099"/>
<path d="M355.385,194.81h 2.38918" fill="none" stroke="#000099"/>
<g stroke="black" stroke-width="1" fill="none">
<line x1="354.385" y1="194.81" x2="355.385" y2="194.81"/>
</g>
<path d="M360.163,249.141v -93.826" fill="none" stroke="#000099"/>
<path d="M360.163,155.315v -93.826" fill="none" stroke="#000099"/>
<path d="M357.774,155.315h 2.38918" fill="none" stroke="#000099"/>
<path d="M360.163,155.315h 2.38918" fill="none" stroke="#000099"/>
<g stroke="black" stroke-width="1" fill="none">
<line x1="359.163" y1="155.315" x2="360.163" y2="155.315"/>
</g>
<path d="M364.942,325.305v -121.342" fill="none" stroke="#000099"/>
<path d="M364.942,203.963v -121.342" fill="none" stroke="#000099"/>
<path d="M362.553,203.963h 2.38918" fill="none" stroke="#000099"/>
<path d="M364.942,203.963h 2.38918" fill="none" stroke="#000099"/>
<g stroke="black" stroke-width="1" fill="none">
<line x1="363.942" y1="203.963" x2="364.942" y2="203.963"/>
</g>
<path d="M369.72,307.124v -93.798" fill="none" stroke="#000099"/>
<path d="M369.72,213.326v -93.798" fill="none" stroke="#000099"/>
<path d="M367.331,213.326h 2.38918" fill="none" stroke="#000099"/>
<path d="M369.72,213.326h 2.38918" fill="none" stroke="#000099"/>
<g stroke="black" stroke-width="1" fill="none">
<line x1="368.72" y1="213.326" x2="369.72" y2="213.326"/>
</g>
<path d="M374.499,291.795v -106.514" fill="none" stroke="#000099"/>
<path d="M374.499,185.28v -106.514" fill="none" stroke="#000099"/>
<path d="M372.109,185.28h 2.38918" fill="none" stroke="#000099"/>
<path d="M374.499,185.28h 2.38918" fill="none" stroke="#000099"/>
<g stroke="black" stroke-width="1" fill="none">
<line x1="373.499" y1="185.28" x2="374.499" y2="185.28"/>
</g>
<path d="M379.277,297.669v -88.9655" fill="none" stroke="#000099"/>
<path d="M379.277,208.704v -88.9655" fill="none" stroke="#000099"/>
<path d="M376.888,208.704h 2.38918" fill="none" stroke="#000099"/>
<path d="M379.277,208.704h 2.38918" fill="none" stroke="#000099"/>
<g stroke="black" stroke-width="1" fill="none">
<line x1="378.277" y1="208.704" x2="379.277" y2="208.704"/>
</g>
<path d="M384.055,371.62v -118.845" fill="none" stroke="#000099"/>
<path d="M384.055,252.775v -121.785" fill="none" stroke="#000099"/>
<path d="M381.666,252.775h 2.38918" fill="none" stroke="#000099"/>
<path d="M384.055,252.775h 2.38918" fill="none" stroke="#000099"/>
<g stroke="black" stroke-width="1" fill="none">
<line x1="383.055" y1="252.775" x2="384.055" y2="252.775"/>
</g>
<path d="M393.612,225.626v -93.6084" fill="none" stroke="#000099"/>
<path d="M393.612,132.017v -88.6998" fill="none" stroke="#000099"/>
<path d="M391.223,132.017h 2.38918" fill="none" stroke="#000099"/>
<path d="M393.612,132.017h 2.38918" fill="none" stroke="#000099"/>
<g stroke="black" stroke-width="1" fill="none">
<line x1="392.612" y1="132.017" x2="393.612" y2="132.017"/>
</g>
<path d="M403.169,279.17v -122.507" fill="none" stroke="#000099"/>
<path d="M403.169,156.663v -113.345" fill="none" stroke="#000099"/>
<path d="M400.78,156.663h 2.38918" fill="none" stroke="#000099"/>
<path d="M403.169,156.663h 2.38918" fill="none" stroke="#000099"/>
<g stroke="black" stroke-width="1" fill="none">
<line x1="402.169" y1="156.663" x2="403.169" y2="156.663"/>
</g>
<path d="M71.956,212.684l 1.768, -2.62506l 1.768, -2.81381l 1.768, -2.97404l 1.768, -3.10411l 1.768, -3.2027l 1.768, -3.26883l 1.768, -3.30181l 1.768, -3.30131l 1.768, -3.26735l 1.768, -3.20025l 1.768, -3.10071l 1.768, -2.96973l 1.768, -2.80864l
 1.768, -2.61907l 1.768, -2.40295l 1.768, -2.16246l 1.768, -1.90005l 1.768, -1.61838l 1.768, -1.3203l 1.768, -1.00883l 1.768, -0.687128l 1.768, -0.358462l 1.768, -0.0261625l 1.768, 0.306402l 1.768, 0.635861l 1.768, 0.958872l 1.768, 1.27216l 1.768,
 1.57255l 1.768, 1.857l 1.768, 2.12262l 1.768, 2.36672l 1.768, 2.58682l 1.768, 2.78069l 1.768, 2.94637l 1.768, 3.08218l 1.768, 3.18674l 1.768, 3.25898l 1.768, 3.29819l 1.768, 3.30395l 1.768, 3.27622l 1.768, 3.21526l 1.768, 3.12171l 1.768, 2.99651l
 1.768, 2.84092l 1.768, 2.65654l 1.768, 2.44521l 1.768, 2.2091l 1.768, 1.95058l 1.768, 1.67229" fill="none" stroke="#ff0000" stroke-width="2"/>
<path d="M158.588,220.562l 1.768, 1.37705l 1.768, 1.06784l 1.768, 0.747808l 1.768, 0.420192l 1.768, 0.0883157l 1.768, -0.244456l 1.768, -0.574749l 1.768, -0.899215l 1.768, -1.21456l 1.768, -1.5176l 1.768, -1.80525l 1.768, -2.07459l 1.768, -2.3229l
 1.768, -2.54766l 1.768, -2.74659l 1.768, -2.91767l 1.768, -3.05916l 1.768, -3.16964l 1.768, -3.24799l 1.768, -3.2934l 1.768, -3.30542l 1.768, -3.28393l 1.768, -3.22914l 1.768, -3.14161l 1.768, -3.02223l 1.768, -2.87221l 1.768, -2.69306l 1.768,
 -2.48661l 1.768, -2.25495l 1.768, -2.00043l 1.768, -1.72562l 1.768, -1.43332l 1.768, -1.12648l 1.768, -0.808224l 1.768, -0.481773l 1.768, -0.150438l 1.768, 0.182423l 1.768, 0.513435l 1.768, 0.83924l 1.768, 1.15654l 1.768, 1.46211l 1.768, 1.75285l
 1.768, 2.02583l 1.768, 2.27826l 1.768, 2.5076l 1.768, 2.71151l 1.768, 2.88793l 1.768, 3.03506l 1.768, 3.15143" fill="none" stroke="#ff0000" stroke-width="2"/>
<path d="M245.22,183.117l 1.768, 3.23584" fill="none" stroke="#ff0000" stroke-width="2"/>
<rect x="408.598" y="28.1185" width="147.432" height="189.23" fill="white"/>
<path d="M408.598,217.348h 147.432" fill="none" stroke="black"/>
<path d="M556.03,217.348v -189.23" fill="none" stroke="black"/>
<path d="M556.03,28.1185h -147.432" fill="none" stroke="black"/>
<path d="M408.598,28.1185v 189.23" fill="none" stroke="black"/>
<text xml:space="preserve" x="416.197" y="42.5577" fill="black" font-size="18.036" font-family="Helvetica">single_ch0001_0</text>
<path d="M408.598,49.144h 147.432" fill="none" stroke="black"/>
<text xml:space="preserve" x="415.437" y="63.8365" fill="black" font-size="11.0304" font-family="Helvetica">Entries </text>
<text xml:space="preserve" x="540.071" y="63.0766" fill="black" font-size="11.0304" font-family="Helvetica"> 0</text>
<text xml:space="preserve" x="415.437" y="85.1154" fill="black" font-size="11.0304" font-family="Helvetica">Mean  </text>
<text xml:space="preserve" x="515.752" y="84.3554" fill="black" font-size="11.0304" font-family="Helvetica">   4270</text>
<text xml:space="preserve" x="415.437" y="105.634" fill="black" font-size="11.0304" font-family="Helvetica">Std Dev   </text>
<text xml:space="preserve" x="515.752" y="105.634" fill="black" font-size="11.0304" font-family="Helvetica">   2277</text>
<text xml:space="preserve" x="425.317" y="126.153" fill="black" font-size="11.0304" font-family="Helvetica"> / ndf </text>
<text xml:space="preserve" x="421.517" y="122.353" fill="black" font-size="7.52024" font-family="Helvetica">2</text>
<text xml:space="preserve" x="415.437" y="126.153" fill="black" font-size="11.0304" font-family="Times">&#0967;</text>
<text xml:space="preserve" x="498.273" y="126.913" fill="black" font-size="11.0304" font-family="Helvetica"> 30.46 / 34</text>
<text xml:space="preserve" x="415.437" y="148.192" fill="black" font-size="11.0304" font-family="Helvetica">Prob  </text>
<text xml:space="preserve" x="518.792" y="147.432" fill="black" font-size="11.0304" font-family="Helvetica"> 0.642</text>
<text xml:space="preserve" x="415.437" y="168.711" fill="black" font-size="11.0304" font-family="Helvetica">A        </text>
<text xml:space="preserve" x="524.871" y="167.951" fill="black" font-size="11.0304" font-family="Helvetica"> 0.00</text>
<text xml:space="preserve" x="518.792" y="167.951" fill="black" font-size="11.0304" font-family="Times">&#0177;</text>
<text xml:space="preserve" x="495.233" y="167.951" fill="black" font-size="11.0304" font-family="Helvetica">0.08 </text>
<text xml:space="preserve" x="489.153" y="167.951" fill="black" font-size="11.0304" font-family="Times">&#8722;</text>
<text xml:space="preserve" x="486.114" y="167.951" fill="black" font-size="11.0304" font-family="Helvetica"> </text>
<text xml:space="preserve" x="415.437" y="189.99" fill="black" font-size="11.0304" font-family="Helvetica">T        </text>
<text xml:space="preserve" x="518.792" y="189.23" fill="black" font-size="11.0304" font-family="Helvetica"> 124.6</text>
<text xml:space="preserve" x="512.712" y="189.23" fill="black" font-size="11.0304" font-family="Times">&#0177;</text>
<text xml:space="preserve" x="480.034" y="189.23" fill="black" font-size="11.0304" font-family="Helvetica">  2308 </text>
<text xml:space="preserve" x="415.437" y="210.509" fill="black" font-size="11.0304" font-family="Helvetica">t_offset </text>
<text xml:space="preserve" x="507.392" y="210.509" fill="black" font-size="11.0304" font-family="Helvetica"> 0.01177</text>
<text xml:space="preserve" x="501.313" y="210.509" fill="black" font-size="11.0304" font-family="Times">&#0177;</text>
<text xml:space="preserve" x="457.235" y="210.509" fill="black" font-size="11.0304" font-family="Helvetica"> 0.03905 </text>
<path d="M56.7369,371.62h 348.821" fill="none" stroke="black"/>
<path d="M56.7369,363.554v 8.0659" fill="none" stroke="black"/>
<path d="M66.2937,367.587v 4.03295" fill="none" stroke="black"/>
<path d="M75.8504,367.587v 4.03295" fill="none" stroke="black"/>
<path d="M85.4072,367.587v 4.03295" fill="none" stroke="black"/>
<path d="M94.9639,367.587v 4.03295" fill="none" stroke="black"/>
<path d="M104.521,363.554v 8.0659" fill="none" stroke="black"/>
<path d="M114.077,367.587v 4.03295" fill="none" stroke="black"/>
<path d="M123.634,367.587v 4.03295" fill="none" stroke="black"/>
<path d="M133.191,367.587v 4.03295" fill="none" stroke="black"/>
<path d="M142.748,367.587v 4.03295" fill="none" stroke="black"/>
<path d="M152.304,363.554v 8.0659" fill="none" stroke="black"/>
<path d="M161.861,367.587v 4.03295" fill="none" stroke="black"/>
<path d="M171.418,367.587v 4.03295" fill="none" stroke="black"/>
<path d="M180.975,367.587v 4.03295" fill="none" stroke="black"/>
<path d="M190.531,367.587v 4.03295" fill="none" stroke="black"/>
<path d="M200.088,363.554v 8.0659" fill="none" stroke="black"/>
<path d="M209.645,367.587v 4.03295" fill="none" stroke="black"/>
<path d="M219.202,367.587v 4.03295" fill="none" stroke="black"/>
<path d="M228.758,367.587v 4.03295" fill="none" stroke="black"/>
<path d="M238.315,367.587v 4.03295" fill="none" stroke="black"/>
<path d="M247.872,363.554v 8.0659" fill="none" stroke="black"/>
<path d="M257.428,367.587v 4.03295" fill="none" stroke="black"/>
<path d="M266.985,367.587v 4.03295" fill="none" stroke="black"/>
<path d="M276.542,367.587v 4.03295" fill="none" stroke="black"/>
<path d="M286.099,367.587v 4.03295" fill="none" stroke="black"/>
<path d="M295.655,363.554v 8.0659" fill="none" stroke="black"/>
<path d="M305.212,367.587v 4.03295" fill="none" stroke="black"/>
<path d="M314.769,367.587v 4.03295" fill="none" stroke="black"/>
<path d="M324.326,367.587v 4.03295" fill="none" stroke="black"/>
<path d="M333.882,367.587v 4.03295" fill="none" stroke="black"/>
<path d="M343.439,363.554v 8.0659" fill="none" stroke="black"/>
<path d="M352.996,367.587v 4.03295" fill="none" stroke="black"/>
<path d="M362.553,367.587v 4.03295" fill="none" stroke="black"/>
<path d="M372.109,367.587v 4.03295" fill="none" stroke="black"/>
<path d="M381.666,367.587v 4.03295" fill="none" stroke="black"/>
<path d="M391.223,363.554v 8.0659" fill="none" stroke="black"/>
<path d="M391.223,363.554v 8.0659" fill="none" stroke="black"/>
<path d="M400.78,367.587v 4.03295" fill="none" stroke="black"/>
<text xml:space="preserve" x="52.9371" y="385.299" fill="black" font-size="14.5313" font-family="Helvetica">0</text>
<text xml:space="preserve" x="87.8952" y="385.299" fill="black" font-size="14.5313" font-family="Helvetica">1000</text>
<text xml:space="preserve" x="135.773" y="385.299" fill="black" font-size="14.5313" font-family="Helvetica">2000</text>
<text xml:space="preserve" x="183.65" y="385.299" fill="black" font-size="14.5313" font-family="Helvetica">3000</text>
<text xml:space="preserve" x="231.527" y="385.299" fill="black" font-size="14.5313" font-family="Helvetica">4000</text>
<text xml:space="preserve" x="279.405" y="385.299" fill="black" font-size="14.5313" font-family="Helvetica">5000</text>
<text xml:space="preserve" x="327.282" y="385.299" fill="black" font-size="14.5313" font-family="Helvetica">6000</text>
<text xml:space="preserve" x="375.16" y="385.299" fill="black" font-size="14.5313" font-family="Helvetica">7000</text>
<text xml:space="preserve" x="351.601" y="399.738" fill="black" font-size="14.5313" font-family="Helvetica">time [ns]</text>
<path d="M56.7369,371.62v -328.302" fill="none" stroke="black"/>
<path d="M69.515,371.62h -12.7781" fill="none" stroke="black"/>
<path d="M63.126,363.412h -6.38904" fill="none" stroke="black"/>
<path d="M63.126,355.205h -6.38904" fill="none" stroke="black"/>
<path d="M63.126,346.997h -6.38904" fill="none" stroke="black"/>
<path d="M63.126,338.79h -6.38904" fill="none" stroke="black"/>
<path d="M69.515,330.582h -12.7781" fill="none" stroke="black"/>
<path d="M63.126,322.374h -6.38904" fill="none" stroke="black"/>
<path d="M63.126,314.167h -6.38904" fill="none" stroke="black"/>
<path d="M63.126,305.959h -6.38904" fill="none" stroke="black"/>
<path d="M63.126,297.752h -6.38904" fill="none" stroke="black"/>
<path d="M69.515,289.544h -12.7781" fill="none" stroke="black"/>
<path d="M63.126,281.337h -6.38904" fill="none" stroke="black"/>
<path d="M63.126,273.129h -6.38904" fill="none" stroke="black"/>
<path d="M63.126,264.922h -6.38904" fill="none" stroke="black"/>
<path d="M63.126,256.714h -6.38904" fill="none" stroke="black"/>
<path d="M69.515,248.506h -12.7781" fill="none" stroke="black"/>
<path d="M63.126,240.299h -6.38904" fill="none" stroke="black"/>
<path d="M63.126,232.091h -6.38904" fill="none" stroke="black"/>
<path d="M63.126,223.884h -6.38904" fill="none" stroke="black"/>
<path d="M63.126,215.676h -6.38904" fill="none" stroke="black"/>
<path d="M69.515,207.469h -12.7781" fill="none" stroke="black"/>
<path d="M63.126,199.261h -6.38904" fill="none" stroke="black"/>
<path d="M63.126,191.054h -6.38904" fill="none" stroke="black"/>
<path d="M63.126,182.846h -6.38904" fill="none" stroke="black"/>
<path d="M63.126,174.638h -6.38904" fill="none" stroke="black"/>
<path d="M69.515,166.431h -12.7781" fill="none" stroke="black"/>
<path d="M63.126,158.223h -6.38904" fill="none" stroke="black"/>
<path d="M63.126,150.016h -6.38904" fill="none" stroke="black"/>
<path d="M63.126,141.808h -6.38904" fill="none" stroke="black"/>
<path d="M63.126,133.601h -6.38904" fill="none" stroke="black"/>
<path d="M69.515,125.393h -12.7781" fill="none" stroke="black"/>
<path d="M63.126,117.186h -6.38904" fill="none" stroke="black"/>
<path d="M63.126,108.978h -6.38904" fill="none" stroke="black"/>
<path d="M63.126,100.771h -6.38904" fill="none" stroke="black"/>
<path d="M63.126,92.563h -6.38904" fill="none" stroke="black"/>
<path d="M69.515,84.3554h -12.7781" fill="none" stroke="black"/>
<path d="M63.126,76.1479h -6.38904" fill="none" stroke="black"/>
<path d="M63.126,67.9403h -6.38904" fill="none" stroke="black"/>
<path d="M63.126,59.7327h -6.38904" fill="none" stroke="black"/>
<path d="M63.126,51.5252h -6.38904" fill="none" stroke="black"/>
<path d="M69.515,43.3176h -12.7781" fill="none" stroke="black"/>
<text xml:space="preserve" x="33.9382" y="376.939" fill="black" font-size="14.5313" font-family="Helvetica">0.4</text>
<text xml:space="preserve" x="25.5786" y="376.939" fill="black" font-size="14.5313" font-family="Times">&#8722;</text>
<text xml:space="preserve" x="33.9382" y="335.902" fill="black" font-size="14.5313" font-family="Helvetica">0.3</text>
<text xml:space="preserve" x="25.5786" y="335.902" fill="black" font-size="14.5313" font-family="Times">&#8722;</text>
<text xml:space="preserve" x="33.9382" y="294.864" fill="black" font-size="14.5313" font-family="Helvetica">0.2</text>
<text xml:space="preserve" x="25.5786" y="294.864" fill="black" font-size="14.5313" font-family="Times">&#8722;</text>
<text xml:space="preserve" x="36.2181" y="253.826" fill="black" font-size="14.5313" font-family="Helvetica">0.1</text>
<text xml:space="preserve" x="27.8585" y="253.826" fill="black" font-size="14.5313" font-family="Times">&#8722;</text>
<text xml:space="preserve" x="46.0975" y="212.788" fill="black" font-size="14.5313" font-family="Helvetica">0</text>
<text xml:space="preserve" x="36.2181" y="171.751" fill="black" font-size="14.5313" font-family="Helvetica">0.1</text>
<text xml:space="preserve" x="33.9382" y="130.713" fill="black" font-size="14.5313" font-family="Helvetica">0.2</text>
<text xml:space="preserve" x="33.9382" y="89.6751" fill="black" font-size="14.5313" font-family="Helvetica">0.3</text>
<text xml:space="preserve" x="33.9382" y="48.6374" fill="black" font-size="14.5313" font-family="Helvetica">0.4</text>
<rect x="408.598" y="28.1185" width="147.432" height="189.23" fill="white"/>
<path d="M408.598,217.348h 147.432" fill="none" stroke="black"/>
<path d="M556.03,217.348v -189.23" fill="none" stroke="black"/>
<path d="M556.03,28.1185h -147.432" fill="none" stroke="black"/>
<path d="M408.598,28.1185v 189.23" fill="none" stroke="black"/>
<text xml:space="preserve" x="416.197" y="42.5577" fill="black" font-size="18.036" font-family="Helvetica">single_ch0001_0</text>
<path d="M408.598,49.144h 147.432" fill="none" stroke="black"/>
<text xml:space="preserve" x="415.437" y="63.8365" fill="black" font-size="11.0304" font-family="Helvetica">Entries </text>
<text xml:space="preserve" x="540.071" y="63.0766" fill="black" font-size="11.0304" font-family="Helvetica"> 0</text>
<text xml:space="preserve" x="415.437" y="85.1154" fill="black" font-size="11.0304" font-family="Helvetica">Mean  </text>
<text xml:space="preserve" x="515.752" y="84.3554" fill="black" font-size="11.0304" font-family="Helvetica">   4270</text>
<text xml:space="preserve" x="415.437" y="105.634" fill="black" font-size="11.0304" font-family="Helvetica">Std Dev   </text>
<text xml:space="preserve" x="515.752" y="105.634" fill="black" font-size="11.0304" font-family="Helvetica">   2277</text>
<text xml:space="preserve" x="425.317" y="126.153" fill="black" font-size="11.0304" font-family="Helvetica"> / ndf </text>
<text xml:space="preserve" x="421.517" y="122.353" fill="black" font-size="7.52024" font-family="Helvetica">2</text>
<text xml:space="preserve" x="415.437" y="126.153" fill="black" font-size="11.0304" font-family="Times">&#0967;</text>
<text xml:space="preserve" x="498.273" y="126.913" fill="black" font-size="11.0304" font-family="Helvetica"> 30.46 / 34</text>
<text xml:space="preserve" x="415.437" y="148.192" fill="black" font-size="11.0304" font-family="Helvetica">Prob  </text>
<text xml:space="preserve" x="518.792" y="147.432" fill="black" font-size="11.0304" font-family="Helvetica"> 0.642</text>
<text xml:space="preserve" x="415.437" y="168.711" fill="black" font-size="11.0304" font-family="Helvetica">A        </text>
<text xml:space="preserve" x="524.871" y="167.951" fill="black" font-size="11.0304" font-family="Helvetica"> 0.00</text>
<text xml:space="preserve" x="518.792" y="167.951" fill="black" font-size="11.0304" font-family="Times">&#0177;</text>
<text xml:space="preserve" x="495.233" y="167.951" fill="black" font-size="11.0304" font-family="Helvetica">0.08 </text>
<text xml:space="preserve" x="489.153" y="167.951" fill="black" font-size="11.0304" font-family="Times">&#8722;</text>
<text xml:space="preserve" x="486.114" y="167.951" fill="black" font-size="11.0304" font-family="Helvetica"> </text>
<text xml:space="preserve" x="415.437" y="189.99" fill="black" font-size="11.0304" font-family="Helvetica">T        </text>
<text xml:space="preserve" x="518.792" y="189.23" fill="black" font-size="11.0304" font-family="Helvetica"> 124.6</text>
<text xml:space="preserve" x="512.712" y="189.23" fill="black" font-size="11.0304" font-family="Times">&#0177;</text>
<text xml:space="preserve" x="480.034" y="189.23" fill="black" font-size="11.0304" font-family="Helvetica">  2308 </text>
<text xml:space="preserve" x="415.437" y="210.509" fill="black" font-size="11.0304" font-family="Helvetica">t_offset </text>
<text xml:space="preserve" x="507.392" y="210.509" fill="black" font-size="11.0304" font-family="Helvetica"> 0.01177</text>
<text xml:space="preserve" x="501.313" y="210.509" fill="black" font-size="11.0304" font-family="Times">&#0177;</text>
<text xml:space="preserve" x="457.235" y="210.509" fill="black" font-size="11.0304" font-family="Helvetica"> 0.03905 </text>
<text xml:space="preserve" x="237.607" y="18.239" fill="black" font-size="19.2419" font-family="Helvetica">asymmetry</text></svg>
